<svg width="140" height="30" viewBox="0 0 140 30" fill="none" xmlns="http://www.w3.org/2000/svg">
<path d="M99.3961 15.8318C99.3609 15.7462 99.3583 15.6466 99.3336 15.556C99.0305 14.4416 98.8772 13.6673 98.0762 12.7748C96.9544 11.5249 95.5317 10.9105 93.8592 10.8264C91.3204 10.6987 88.6941 10.9726 86.1419 10.8681C84.88 10.8164 83.3748 10.2533 82.3598 9.50949C81.0709 8.56504 79.8128 6.94269 79.8415 3.07968C79.8076 3.10102 79.8211 3.15753 79.8206 3.1922C79.7959 5.19752 79.8254 9.7093 79.8282 11.7083C79.8778 11.6583 79.9148 11.7617 79.9241 11.7943C80.082 12.3419 80.1252 12.705 80.3867 13.2308C81.615 15.7002 84.2133 16.976 86.888 17.144C88.3995 17.239 90.0126 17.1224 91.5333 17.1024C92.5181 17.0894 93.5837 17.0102 94.5561 17.0619C98.4402 17.0619 99.4455 21.2441 99.4455 21.2441C99.4421 21.2277 99.4672 21.2505 99.4455 21.2441L99.4446 20.9348L99.4166 16.0472C99.4166 15.9963 99.3951 15.9087 99.3961 15.8318Z" fill="#F9DC35"/>
<path d="M83.228 21.6741C86.6011 23.797 90.3152 23.0266 94.0733 23.1747C95.586 23.2343 96.8983 23.6084 98.0837 24.5712C98.6019 24.992 99.0881 25.6559 99.3636 26.263C99.3596 26.2612 99.3688 26.2681 99.3636 26.263C99.3618 26.3434 99.3656 26.1827 99.3636 26.263C99.346 26.9448 99.4254 27.9445 99.1354 28.5578C98.4363 30.0368 97.2547 29.9668 95.8132 29.9875C93.0027 30.0279 90.1891 29.9545 87.3783 29.9874C84.3794 29.8557 82.0729 28.3288 80.7264 25.6788C79.744 23.7451 79.8506 22.0428 79.8578 19.9454C79.8612 18.9667 79.7782 17.7064 79.8357 16.7411C79.8231 16.6738 79.8454 16.8083 79.8357 16.7411C80.1862 18.6195 81.6437 20.677 83.228 21.6741Z" fill="#5E97E0"/>
<path d="M99.4166 15.4217C99.4158 15.5518 99.4182 15.9226 99.4166 16.0472C99.3814 15.9616 99.3728 15.7123 99.3482 15.6217C99.0451 14.5073 98.906 13.6873 98.105 12.7948C96.9832 11.5448 95.5606 10.9305 93.888 10.8463C91.3493 10.7187 88.7229 10.9926 86.1707 10.888C84.9088 10.8363 83.4036 10.2732 82.3886 9.52945C81.4808 8.86421 80.728 7.97453 80.2679 6.94269C80.0125 6.36987 79.84 3.97859 79.8229 3.34919C79.8153 3.07034 79.82 2.48424 79.8312 2.20544C79.8399 1.98798 79.8405 1.73216 79.9352 1.53112C79.9924 1.40988 80.2014 1.19329 80.3071 1.1037C81.2598 0.29531 82.297 1.83253 82.9066 2.4172C83.8758 3.34693 85.537 6.58568 86.9076 6.662C88.7619 6.76524 90.737 6.473 92.5682 6.85581C95.2424 7.41489 97.1198 8.7185 98.3917 11.1535C98.958 12.2375 99.4238 14.2019 99.4166 15.4217Z" fill="#F97979"/>
<path d="M9.05439 29.9168C5.044 29.9168 1.44705 28.9182 0 27.6699V22.6353C0 22.2608 0.28941 22.0527 0.950918 22.0527H2.81141C2.8941 24.6325 3.5556 25.5479 4.01039 25.7975C5.044 26.3801 6.69777 26.9626 8.93036 26.9626C11.9898 26.9626 14.9253 25.6727 14.9253 22.7185C14.9253 19.8475 14.0157 18.3495 8.51691 16.6436C3.84502 15.1873 0.0413443 13.2316 0.0413443 8.23857C0.0413443 3.7448 4.21711 0.915397 8.88901 0.915397C12.9407 0.915397 15.6281 1.83079 17.0752 3.07906V7.57283C17.0752 7.94731 16.7858 8.15535 16.1243 8.15535H14.2638C14.2638 6.0333 13.809 4.95146 13.3542 4.70181C12.2792 4.16089 10.8735 3.78641 9.01305 3.78641C6.40836 3.78641 3.63829 5.07629 3.63829 7.65604C3.63829 10.9431 5.45744 12.3162 9.59186 13.5645C15.7522 15.4369 18.5222 17.6422 18.5222 22.3024C18.5222 27.4203 13.8503 29.9168 9.05439 29.9168Z" fill="black"/>
<path d="M26.1044 4.82664C24.6573 4.82664 23.7064 3.78641 23.7064 2.41332C23.7064 1.04022 24.6573 0 26.1044 0C27.5928 0 28.5437 1.04022 28.5437 2.41332C28.5437 3.78641 27.5928 4.82664 26.1044 4.82664ZM22.1353 29.1679C21.6805 28.5437 21.5978 27.7532 21.8046 27.0458C24.1198 27.0458 24.6573 27.0458 24.6573 26.0888V13.1068C24.6573 12.3162 24.4919 12.0666 24.0785 12.0666H21.8046C21.6805 11.6089 21.5152 11.068 21.5152 10.7351C21.5152 10.4438 21.6805 10.2774 22.094 10.111C23.3756 9.61166 25.7323 9.11236 26.7245 9.11236C27.7995 9.11236 28.0889 9.69488 28.0889 10.4022V26.0472C28.0889 27.0042 28.4196 27.0458 30.2801 27.0458C30.6109 27.0458 30.859 27.2122 30.859 27.4203C30.859 28.0028 30.7349 28.5853 30.5282 29.1679H22.1353Z" fill="black"/>
<path d="M34.2479 29.1679C33.8344 28.6686 33.7518 27.8364 33.9171 27.0458C36.2324 27.0458 36.7699 27.0458 36.7699 26.0888V12.4827C36.7699 11.6921 36.6045 11.4425 36.1911 11.4425H33.9171C33.7931 10.9848 33.6277 10.4438 33.6277 10.1526C33.6277 9.81971 33.7931 9.65327 34.2065 9.48684C35.4882 8.98753 37.8448 8.48822 38.8371 8.48822C39.9121 8.48822 40.2015 9.07075 40.2015 9.7781V11.6505C41.6072 9.94453 43.7984 8.48822 46.4444 8.48822C50.4962 8.48822 53.0595 11.3176 53.0595 15.7282V26.0472C53.0595 26.9626 53.4316 27.0458 55.2921 27.0458C55.6229 27.0458 55.8709 27.2122 55.8709 27.4203C55.8709 28.0028 55.7469 28.6269 55.5402 29.1679H47.23C46.8165 28.6686 46.7338 27.8364 46.8992 27.0458C49.1732 27.0458 49.6279 27.0458 49.6279 26.0888V17.1013C49.6279 13.19 48.553 11.5673 45.6176 11.5673C43.8811 11.5673 41.6485 12.982 40.2015 14.896V26.0472C40.2015 26.9626 40.4909 27.0458 42.2687 27.0458C42.5994 27.0458 42.8475 27.2122 42.8475 27.4203C42.8475 28.0028 42.7235 28.6269 42.5167 29.1679H34.2479Z" fill="black"/>
<path d="M64.664 29.6672C60.0748 29.6672 58.5037 27.0458 58.5037 24.2164C58.5037 20.2635 61.3978 17.6422 66.5245 17.6422H70.9897V16.5604C70.9897 12.6491 69.7907 11.276 66.6485 11.276C65.1601 11.276 64.0438 11.5673 63.1756 12.1914C62.7208 12.5243 62.4314 14.1886 62.3901 15.104H60.8603C60.1988 15.104 59.7854 14.9376 59.7854 14.5215V11.068C61.3151 9.73649 63.5891 8.48822 66.9793 8.48822C71.4858 8.48822 74.4212 11.1096 74.4212 15.7282V26.0056C74.4212 26.2968 74.4626 26.7545 74.5866 27.0042H77.1086C77.274 27.3787 77.3567 27.8364 77.3567 28.5853C76.5298 29.1263 74.752 29.6256 73.3876 29.6256C72.2713 29.6256 71.4858 28.3773 71.1137 27.4203C69.5426 28.7102 67.1447 29.6672 64.664 29.6672ZM65.2015 26.921C67.31 26.921 69.5013 26.0888 70.9897 24.4661V20.0971H66.8139C63.9612 20.0971 61.9353 21.387 61.9353 23.8419C61.9353 26.0056 63.1343 26.921 65.2015 26.921Z" fill="black"/>
<path d="M103.169 29.1679C102.715 28.5853 102.591 27.8364 102.797 27.0458C105.113 27.0458 105.65 27.0458 105.65 26.0472V12.4827C105.65 11.6921 105.485 11.4425 105.071 11.4425H102.797C102.673 10.9848 102.508 10.4438 102.508 10.1526C102.508 9.81971 102.673 9.65327 103.087 9.48684C104.368 8.98753 106.684 8.48822 107.593 8.48822C108.668 8.48822 108.958 9.07075 108.958 9.7781V12.1498C110.157 9.86132 111.934 8.48822 114.208 8.48822C115.655 8.48822 116.937 8.98753 117.764 9.69488V14.1054C117.764 14.5215 117.474 14.688 116.854 14.688H115.242C115.201 13.5229 115.159 12.0666 114.87 11.8585C114.415 11.5257 114.126 11.4008 113.299 11.4008C112.306 11.4008 109.95 12.6907 109.082 16.3939V26.0472C109.082 27.0042 109.371 27.0458 111.893 27.0458C112.182 27.0458 112.472 27.1706 112.472 27.4203C112.472 28.0028 112.348 28.6269 112.141 29.1679H103.169Z" fill="black"/>
<path d="M130.119 29.6672C124.455 29.6672 120.237 25.8808 120.237 19.0569C120.237 12.233 124.455 8.48822 130.119 8.48822C135.783 8.48822 140 12.233 140 19.0569C140 25.8808 135.783 29.6672 130.119 29.6672ZM130.119 26.8378C133.881 26.8378 136.527 23.8419 136.527 19.0569C136.527 14.1886 133.881 11.3176 130.119 11.3176C126.356 11.3176 123.71 14.1886 123.71 19.0569C123.71 23.8419 126.356 26.8378 130.119 26.8378Z" fill="black"/>
<path d="M79.9241 11.7943C79.9148 11.7617 79.8778 11.6583 79.8282 11.7083C79.8302 13.0886 79.7956 14.5007 79.8357 15.8834L79.8357 16.7411C79.8325 16.7212 79.8386 16.761 79.8357 16.7411C80.1862 18.6195 81.6437 20.677 83.228 21.6741C86.6011 23.797 90.3152 23.0266 94.0733 23.1747C95.586 23.2343 96.8983 23.6084 98.0837 24.5712C98.6019 24.992 99.0881 25.6559 99.3636 26.263C99.3636 26.263 99.3606 25.713 99.3628 25.4414C99.3736 24.1219 99.4498 22.5702 99.4455 21.2441C99.4455 21.2441 98.4402 17.0619 94.5561 17.0619C93.5837 17.0102 92.5181 17.0894 91.5333 17.1024C90.0126 17.1224 88.3995 17.239 86.888 17.144C84.2133 16.976 81.615 15.7002 80.3867 13.2308C80.1252 12.705 80.082 12.3419 79.9241 11.7943Z" fill="#71E179"/>
<path d="M99.3644 15.7157C99.3719 15.7558 99.381 15.7951 99.3961 15.8318C99.3951 15.9087 99.4166 15.9963 99.4166 16.0472C99.3903 15.9833 99.3788 15.828 99.3644 15.7157C99.3586 15.6845 99.354 15.653 99.3482 15.6217C99.2758 15.3554 99.2126 15.1059 99.1477 14.8683C98.9323 14.097 98.7019 13.472 98.0762 12.7748C97.7585 12.4209 97.4167 12.1179 97.0519 11.8635C96.1351 11.2325 95.0745 10.906 93.888 10.8463C91.3493 10.7187 88.7229 10.9926 86.1707 10.888C84.9524 10.8381 83.5072 10.3115 82.4955 9.60589C83.5057 10.3015 84.9351 10.8186 86.1419 10.8681C88.6941 10.9726 91.3204 10.6987 93.8592 10.8264C95.0581 10.8867 96.1286 11.2195 97.0519 11.8635C97.4275 12.122 97.779 12.4315 98.105 12.7948C98.7146 13.474 98.9408 14.1113 99.1477 14.8683C99.208 15.0844 99.2673 15.312 99.3336 15.556C99.3394 15.5774 99.3441 15.5995 99.3482 15.6217C99.3544 15.6446 99.3596 15.6777 99.3644 15.7157Z" fill="black"/>
<path d="M99.3961 15.8318C99.3609 15.7462 99.3583 15.6466 99.3336 15.556C99.0305 14.4416 98.8772 13.6673 98.0762 12.7748C96.9544 11.5249 95.5317 10.9105 93.8592 10.8264C91.3204 10.6987 88.6941 10.9726 86.1419 10.8681C84.88 10.8164 83.3748 10.2533 82.3598 9.50949C81.0709 8.56504 79.8128 6.94269 79.8415 3.07968C79.8076 3.10102 79.8211 3.15753 79.8206 3.1922C79.7959 5.19752 79.8254 9.7093 79.8282 11.7083C79.8778 11.6583 79.9148 11.7617 79.9241 11.7943C80.082 12.3419 80.1252 12.705 80.3867 13.2308C81.615 15.7002 84.2133 16.976 86.888 17.144C88.3995 17.239 90.0126 17.1224 91.5333 17.1024C92.5181 17.0894 93.5837 17.0102 94.5561 17.0619C98.4402 17.0619 99.4455 21.2441 99.4455 21.2441C99.4421 21.2277 99.4672 21.2505 99.4455 21.2441L99.4446 20.9348L99.4166 16.0472C99.4166 15.9963 99.3951 15.9087 99.3961 15.8318Z" fill="#F9DC35"/>
<path d="M83.228 21.6741C86.6011 23.797 90.3152 23.0266 94.0733 23.1747C95.586 23.2343 96.8983 23.6084 98.0837 24.5712C98.6019 24.992 99.0881 25.6559 99.3636 26.263C99.3596 26.2612 99.3688 26.2681 99.3636 26.263C99.3618 26.3434 99.3656 26.1827 99.3636 26.263C99.346 26.9448 99.4254 27.9445 99.1354 28.5578C98.4363 30.0368 97.2547 29.9668 95.8132 29.9875C93.0027 30.0279 90.1891 29.9545 87.3783 29.9874C84.3794 29.8557 82.0729 28.3288 80.7264 25.6788C79.744 23.7451 79.8506 22.0428 79.8578 19.9454C79.8612 18.9667 79.7782 17.7064 79.8357 16.7411C79.8231 16.6738 79.8454 16.8083 79.8357 16.7411C80.1862 18.6195 81.6437 20.677 83.228 21.6741Z" fill="#5E97E0"/>
<path d="M99.4166 15.4217C99.4158 15.5518 99.4182 15.9226 99.4166 16.0472C99.3814 15.9616 99.3728 15.7123 99.3482 15.6217C99.0451 14.5073 98.906 13.6873 98.105 12.7948C96.9832 11.5448 95.5606 10.9305 93.888 10.8463C91.3493 10.7187 88.7229 10.9926 86.1707 10.888C84.9088 10.8363 83.4036 10.2732 82.3886 9.52945C81.4808 8.86421 80.728 7.97453 80.2679 6.94269C80.0125 6.36987 79.84 3.97859 79.8229 3.34919C79.8153 3.07034 79.82 2.48424 79.8312 2.20544C79.8399 1.98798 79.8405 1.73216 79.9352 1.53112C79.9924 1.40988 80.2014 1.19329 80.3071 1.1037C81.2598 0.29531 82.297 1.83253 82.9066 2.4172C83.8758 3.34693 85.537 6.58568 86.9076 6.662C88.7619 6.76524 90.737 6.473 92.5682 6.85581C95.2424 7.41489 97.1198 8.7185 98.3917 11.1535C98.958 12.2375 99.4238 14.2019 99.4166 15.4217Z" fill="#F97979"/>
<path d="M79.9241 11.7943C79.9148 11.7617 79.8778 11.6583 79.8282 11.7083C79.8302 13.0886 79.7956 14.5007 79.8357 15.8834L79.8357 16.7411C79.8325 16.7212 79.8386 16.761 79.8357 16.7411C80.1862 18.6195 81.6437 20.677 83.228 21.6741C86.6011 23.797 90.3152 23.0266 94.0733 23.1747C95.586 23.2343 96.8983 23.6084 98.0837 24.5712C98.6019 24.992 99.0881 25.6559 99.3636 26.263C99.3636 26.263 99.3606 25.713 99.3628 25.4414C99.3736 24.1219 99.4498 22.5702 99.4455 21.2441C99.4455 21.2441 98.4402 17.0619 94.5561 17.0619C93.5837 17.0102 92.5181 17.0894 91.5333 17.1024C90.0126 17.1224 88.3995 17.239 86.888 17.144C84.2133 16.976 81.615 15.7002 80.3867 13.2308C80.1252 12.705 80.082 12.3419 79.9241 11.7943Z" fill="#71E179"/>
<path d="M99.3644 15.7157C99.3719 15.7558 99.381 15.7951 99.3961 15.8318C99.3951 15.9087 99.4166 15.9963 99.4166 16.0472C99.3903 15.9833 99.3788 15.828 99.3644 15.7157C99.3586 15.6845 99.354 15.653 99.3482 15.6217C99.2758 15.3554 99.2126 15.1059 99.1477 14.8683C98.9323 14.097 98.7019 13.472 98.0762 12.7748C97.7585 12.4209 97.4167 12.1179 97.0519 11.8635C96.1351 11.2325 95.0745 10.906 93.888 10.8463C91.3493 10.7187 88.7229 10.9926 86.1707 10.888C84.9524 10.8381 83.5072 10.3115 82.4955 9.60589C83.5057 10.3015 84.9351 10.8186 86.1419 10.8681C88.6941 10.9726 91.3204 10.6987 93.8592 10.8264C95.0581 10.8867 96.1286 11.2195 97.0519 11.8635C97.4275 12.122 97.779 12.4315 98.105 12.7948C98.7146 13.474 98.9408 14.1113 99.1477 14.8683C99.208 15.0844 99.2673 15.312 99.3336 15.556C99.3394 15.5774 99.3441 15.5995 99.3482 15.6217C99.3544 15.6446 99.3596 15.6777 99.3644 15.7157Z" fill="black"/>
<path d="M99.3961 15.8318C99.3609 15.7462 99.3583 15.6466 99.3336 15.556C99.0305 14.4416 98.8772 13.6673 98.0762 12.7748C96.9544 11.5249 95.5317 10.9105 93.8592 10.8264C91.3204 10.6987 88.6941 10.9726 86.1419 10.8681C84.88 10.8164 83.3748 10.2533 82.3598 9.50949C81.0709 8.56504 79.8128 6.94269 79.8415 3.07968C79.8076 3.10102 79.8211 3.15753 79.8206 3.1922C79.7959 5.19752 79.8254 9.7093 79.8282 11.7083C79.8778 11.6583 79.9148 11.7617 79.9241 11.7943C80.082 12.3419 80.1252 12.705 80.3867 13.2308C81.615 15.7002 84.2133 16.976 86.888 17.144C88.3995 17.239 90.0126 17.1224 91.5333 17.1024C92.5181 17.0894 93.5837 17.0102 94.5561 17.0619C98.4402 17.0619 99.4455 21.2441 99.4455 21.2441C99.4421 21.2277 99.4672 21.2505 99.4455 21.2441L99.4446 20.9348L99.4166 16.0472C99.4166 15.9963 99.3951 15.9087 99.3961 15.8318Z" fill="#F9DC35"/>
<path d="M83.228 21.6741C86.6011 23.797 90.3152 23.0266 94.0733 23.1747C95.586 23.2343 96.8983 23.6084 98.0837 24.5712C98.6019 24.992 99.0881 25.6559 99.3636 26.263C99.3596 26.2612 99.3688 26.2681 99.3636 26.263C99.3618 26.3434 99.3656 26.1827 99.3636 26.263C99.346 26.9448 99.4254 27.9445 99.1354 28.5578C98.4363 30.0368 97.2547 29.9668 95.8132 29.9875C93.0027 30.0279 90.1891 29.9545 87.3783 29.9874C84.3794 29.8557 82.0729 28.3288 80.7264 25.6788C79.744 23.7451 79.8506 22.0428 79.8578 19.9454C79.8612 18.9667 79.7782 17.7064 79.8357 16.7411C79.8231 16.6738 79.8454 16.8083 79.8357 16.7411C80.1862 18.6195 81.6437 20.677 83.228 21.6741Z" fill="#5E97E0"/>
<path d="M99.4166 15.4217C99.4158 15.5518 99.4182 15.9226 99.4166 16.0472C99.3814 15.9616 99.3728 15.7123 99.3482 15.6217C99.0451 14.5073 98.906 13.6873 98.105 12.7948C96.9832 11.5448 95.5606 10.9305 93.888 10.8463C91.3493 10.7187 88.7229 10.9926 86.1707 10.888C84.9088 10.8363 83.4036 10.2732 82.3886 9.52945C81.4808 8.86421 80.728 7.97453 80.2679 6.94269C80.0125 6.36987 79.84 3.97859 79.8229 3.34919C79.8153 3.07034 79.82 2.48424 79.8312 2.20544C79.8399 1.98798 79.8405 1.73216 79.9352 1.53112C79.9924 1.40988 80.2014 1.19329 80.3071 1.1037C81.2598 0.29531 82.297 1.83253 82.9066 2.4172C83.8758 3.34693 85.537 6.58568 86.9076 6.662C88.7619 6.76524 90.737 6.473 92.5682 6.85581C95.2424 7.41489 97.1198 8.7185 98.3917 11.1535C98.958 12.2375 99.4238 14.2019 99.4166 15.4217Z" fill="#F97979"/>
<path d="M79.9241 11.7943C79.9148 11.7617 79.8778 11.6583 79.8282 11.7083C79.8302 13.0886 79.7956 14.5007 79.8357 15.8834L79.8357 16.7411C79.8325 16.7212 79.8386 16.761 79.8357 16.7411C80.1862 18.6195 81.6437 20.677 83.228 21.6741C86.6011 23.797 90.3152 23.0266 94.0733 23.1747C95.586 23.2343 96.8983 23.6084 98.0837 24.5712C98.6019 24.992 99.0881 25.6559 99.3636 26.263C99.3636 26.263 99.3606 25.713 99.3628 25.4414C99.3736 24.1219 99.4498 22.5702 99.4455 21.2441C99.4455 21.2441 98.4402 17.0619 94.5561 17.0619C93.5837 17.0102 92.5181 17.0894 91.5333 17.1024C90.0126 17.1224 88.3995 17.239 86.888 17.144C84.2133 16.976 81.615 15.7002 80.3867 13.2308C80.1252 12.705 80.082 12.3419 79.9241 11.7943Z" fill="#71E179"/>
<path d="M99.3644 15.7157C99.3719 15.7558 99.381 15.7951 99.3961 15.8318C99.3951 15.9087 99.4166 15.9963 99.4166 16.0472C99.3903 15.9833 99.3788 15.828 99.3644 15.7157C99.3586 15.6845 99.354 15.653 99.3482 15.6217C99.2758 15.3554 99.2126 15.1059 99.1477 14.8683C98.9323 14.097 98.7019 13.472 98.0762 12.7748C97.7585 12.4209 97.4167 12.1179 97.0519 11.8635C96.1351 11.2325 95.0745 10.906 93.888 10.8463C91.3493 10.7187 88.7229 10.9926 86.1707 10.888C84.9524 10.8381 83.5072 10.3115 82.4955 9.60589C83.5057 10.3015 84.9351 10.8186 86.1419 10.8681C88.6941 10.9726 91.3204 10.6987 93.8592 10.8264C95.0581 10.8867 96.1286 11.2195 97.0519 11.8635C97.4275 12.122 97.779 12.4315 98.105 12.7948C98.7146 13.474 98.9408 14.1113 99.1477 14.8683C99.208 15.0844 99.2673 15.312 99.3336 15.556C99.3394 15.5774 99.3441 15.5995 99.3482 15.6217C99.3544 15.6446 99.3596 15.6777 99.3644 15.7157Z" fill="black"/>
<path d="M99.3961 15.8318C99.3609 15.7462 99.3583 15.6466 99.3336 15.556C99.0305 14.4416 98.8772 13.6673 98.0762 12.7748C96.9544 11.5249 95.5317 10.9105 93.8592 10.8264C91.3204 10.6987 88.6941 10.9726 86.1419 10.8681C84.88 10.8164 83.3748 10.2533 82.3598 9.50949C81.0709 8.56504 79.8128 6.94269 79.8415 3.07968C79.8076 3.10102 79.8211 3.15753 79.8206 3.1922C79.7959 5.19752 79.8254 9.7093 79.8282 11.7083C79.8778 11.6583 79.9148 11.7617 79.9241 11.7943C80.082 12.3419 80.1252 12.705 80.3867 13.2308C81.615 15.7002 84.2133 16.976 86.888 17.144C88.3995 17.239 90.0126 17.1224 91.5333 17.1024C92.5181 17.0894 93.5837 17.0102 94.5561 17.0619C98.4402 17.0619 99.4455 21.2441 99.4455 21.2441C99.4421 21.2277 99.4672 21.2505 99.4455 21.2441L99.4446 20.9348L99.4166 16.0472C99.4166 15.9963 99.3951 15.9087 99.3961 15.8318Z" fill="#F9DC35"/>
<path d="M83.228 21.6741C86.6011 23.797 90.3152 23.0266 94.0733 23.1747C95.586 23.2343 96.8983 23.6084 98.0837 24.5712C98.6019 24.992 99.0881 25.6559 99.3636 26.263C99.3596 26.2612 99.3688 26.2681 99.3636 26.263C99.3618 26.3434 99.3656 26.1827 99.3636 26.263C99.346 26.9448 99.4254 27.9445 99.1354 28.5578C98.4363 30.0368 97.2547 29.9668 95.8132 29.9875C93.0027 30.0279 90.1891 29.9545 87.3783 29.9874C84.3794 29.8557 82.0729 28.3288 80.7264 25.6788C79.744 23.7451 79.8506 22.0428 79.8578 19.9454C79.8612 18.9667 79.7782 17.7064 79.8357 16.7411C79.8231 16.6738 79.8454 16.8083 79.8357 16.7411C80.1862 18.6195 81.6437 20.677 83.228 21.6741Z" fill="#5E97E0"/>
<path d="M99.4166 15.4217C99.4158 15.5518 99.4182 15.9226 99.4166 16.0472C99.3814 15.9616 99.3728 15.7123 99.3482 15.6217C99.0451 14.5073 98.906 13.6873 98.105 12.7948C96.9832 11.5448 95.5606 10.9305 93.888 10.8463C91.3493 10.7187 88.7229 10.9926 86.1707 10.888C84.9088 10.8363 83.4036 10.2732 82.3886 9.52945C81.4808 8.86421 80.728 7.97453 80.2679 6.94269C80.0125 6.36987 79.84 3.97859 79.8229 3.34919C79.8153 3.07034 79.82 2.48424 79.8312 2.20544C79.8399 1.98798 79.8405 1.73216 79.9352 1.53112C79.9924 1.40988 80.2014 1.19329 80.3071 1.1037C81.2598 0.29531 82.297 1.83253 82.9066 2.4172C83.8758 3.34693 85.537 6.58568 86.9076 6.662C88.7619 6.76524 90.737 6.473 92.5682 6.85581C95.2424 7.41489 97.1198 8.7185 98.3917 11.1535C98.958 12.2375 99.4238 14.2019 99.4166 15.4217Z" fill="#F97979"/>
<path d="M79.9241 11.7943C79.9148 11.7617 79.8778 11.6583 79.8282 11.7083C79.8302 13.0886 79.7956 14.5007 79.8357 15.8834L79.8357 16.7411C79.8325 16.7212 79.8386 16.761 79.8357 16.7411C80.1862 18.6195 81.6437 20.677 83.228 21.6741C86.6011 23.797 90.3152 23.0266 94.0733 23.1747C95.586 23.2343 96.8983 23.6084 98.0837 24.5712C98.6019 24.992 99.0881 25.6559 99.3636 26.263C99.3636 26.263 99.3606 25.713 99.3628 25.4414C99.3736 24.1219 99.4498 22.5702 99.4455 21.2441C99.4455 21.2441 98.4402 17.0619 94.5561 17.0619C93.5837 17.0102 92.5181 17.0894 91.5333 17.1024C90.0126 17.1224 88.3995 17.239 86.888 17.144C84.2133 16.976 81.615 15.7002 80.3867 13.2308C80.1252 12.705 80.082 12.3419 79.9241 11.7943Z" fill="#71E179"/>
<path d="M99.3644 15.7157C99.3719 15.7558 99.381 15.7951 99.3961 15.8318C99.3951 15.9087 99.4166 15.9963 99.4166 16.0472C99.3903 15.9833 99.3788 15.828 99.3644 15.7157C99.3586 15.6845 99.354 15.653 99.3482 15.6217C99.2758 15.3554 99.2126 15.1059 99.1477 14.8683C98.9323 14.097 98.7019 13.472 98.0762 12.7748C97.7585 12.4209 97.4167 12.1179 97.0519 11.8635C96.1351 11.2325 95.0745 10.906 93.888 10.8463C91.3493 10.7187 88.7229 10.9926 86.1707 10.888C84.9524 10.8381 83.5072 10.3115 82.4955 9.60589C83.5057 10.3015 84.9351 10.8186 86.1419 10.8681C88.6941 10.9726 91.3204 10.6987 93.8592 10.8264C95.0581 10.8867 96.1286 11.2195 97.0519 11.8635C97.4275 12.122 97.779 12.4315 98.105 12.7948C98.7146 13.474 98.9408 14.1113 99.1477 14.8683C99.208 15.0844 99.2673 15.312 99.3336 15.556C99.3394 15.5774 99.3441 15.5995 99.3482 15.6217C99.3544 15.6446 99.3596 15.6777 99.3644 15.7157Z" fill="black"/>
<path d="M99.3961 15.8318C99.3609 15.7462 99.3583 15.6466 99.3336 15.556C99.0305 14.4416 98.8772 13.6673 98.0762 12.7748C96.9544 11.5249 95.5317 10.9105 93.8592 10.8264C91.3204 10.6987 88.6941 10.9726 86.1419 10.8681C84.88 10.8164 83.3748 10.2533 82.3598 9.50949C81.0709 8.56504 79.8128 6.94269 79.8415 3.07968C79.8076 3.10102 79.8211 3.15753 79.8206 3.1922C79.7959 5.19752 79.8254 9.7093 79.8282 11.7083C79.8778 11.6583 79.9148 11.7617 79.9241 11.7943C80.082 12.3419 80.1252 12.705 80.3867 13.2308C81.615 15.7002 84.2133 16.976 86.888 17.144C88.3995 17.239 90.0126 17.1224 91.5333 17.1024C92.5181 17.0894 93.5837 17.0102 94.5561 17.0619C98.4402 17.0619 99.4455 21.2441 99.4455 21.2441C99.4421 21.2277 99.4672 21.2505 99.4455 21.2441L99.4446 20.9348L99.4166 16.0472C99.4166 15.9963 99.3951 15.9087 99.3961 15.8318Z" fill="#F9DC35"/>
<path d="M83.228 21.6741C86.6011 23.797 90.3152 23.0266 94.0733 23.1747C95.586 23.2343 96.8983 23.6084 98.0837 24.5712C98.6019 24.992 99.0881 25.6559 99.3636 26.263C99.3596 26.2612 99.3688 26.2681 99.3636 26.263C99.3618 26.3434 99.3656 26.1827 99.3636 26.263C99.346 26.9448 99.4254 27.9445 99.1354 28.5578C98.4363 30.0368 97.2547 29.9668 95.8132 29.9875C93.0027 30.0279 90.1891 29.9545 87.3783 29.9874C84.3794 29.8557 82.0729 28.3288 80.7264 25.6788C79.744 23.7451 79.8506 22.0428 79.8578 19.9454C79.8612 18.9667 79.7782 17.7064 79.8357 16.7411C79.8231 16.6738 79.8454 16.8083 79.8357 16.7411C80.1862 18.6195 81.6437 20.677 83.228 21.6741Z" fill="#5E97E0"/>
<path d="M99.4166 15.4217C99.4158 15.5518 99.4182 15.9226 99.4166 16.0472C99.3814 15.9616 99.3728 15.7123 99.3482 15.6217C99.0451 14.5073 98.906 13.6873 98.105 12.7948C96.9832 11.5448 95.5606 10.9305 93.888 10.8463C91.3493 10.7187 88.7229 10.9926 86.1707 10.888C84.9088 10.8363 83.4036 10.2732 82.3886 9.52945C81.4808 8.86421 80.728 7.97453 80.2679 6.94269C80.0125 6.36987 79.84 3.97859 79.8229 3.34919C79.8153 3.07034 79.82 2.48424 79.8312 2.20544C79.8399 1.98798 79.8405 1.73216 79.9352 1.53112C79.9924 1.40988 80.2014 1.19329 80.3071 1.1037C81.2598 0.29531 82.297 1.83253 82.9066 2.4172C83.8758 3.34693 85.537 6.58568 86.9076 6.662C88.7619 6.76524 90.737 6.473 92.5682 6.85581C95.2424 7.41489 97.1198 8.7185 98.3917 11.1535C98.958 12.2375 99.4238 14.2019 99.4166 15.4217Z" fill="#F97979"/>
<path d="M79.9241 11.7943C79.9148 11.7617 79.8778 11.6583 79.8282 11.7083C79.8302 13.0886 79.7956 14.5007 79.8357 15.8834L79.8357 16.7411C79.8325 16.7212 79.8386 16.761 79.8357 16.7411C80.1862 18.6195 81.6437 20.677 83.228 21.6741C86.6011 23.797 90.3152 23.0266 94.0733 23.1747C95.586 23.2343 96.8983 23.6084 98.0837 24.5712C98.6019 24.992 99.0881 25.6559 99.3636 26.263C99.3636 26.263 99.3606 25.713 99.3628 25.4414C99.3736 24.1219 99.4498 22.5702 99.4455 21.2441C99.4455 21.2441 98.4402 17.0619 94.5561 17.0619C93.5837 17.0102 92.5181 17.0894 91.5333 17.1024C90.0126 17.1224 88.3995 17.239 86.888 17.144C84.2133 16.976 81.615 15.7002 80.3867 13.2308C80.1252 12.705 80.082 12.3419 79.9241 11.7943Z" fill="#71E179"/>
<path d="M99.3644 15.7157C99.3719 15.7558 99.381 15.7951 99.3961 15.8318C99.3951 15.9087 99.4166 15.9963 99.4166 16.0472C99.3903 15.9833 99.3788 15.828 99.3644 15.7157C99.3586 15.6845 99.354 15.653 99.3482 15.6217C99.2758 15.3554 99.2126 15.1059 99.1477 14.8683C98.9323 14.097 98.7019 13.472 98.0762 12.7748C97.7585 12.4209 97.4167 12.1179 97.0519 11.8635C96.1351 11.2325 95.0745 10.906 93.888 10.8463C91.3493 10.7187 88.7229 10.9926 86.1707 10.888C84.9524 10.8381 83.5072 10.3115 82.4955 9.60589C83.5057 10.3015 84.9351 10.8186 86.1419 10.8681C88.6941 10.9726 91.3204 10.6987 93.8592 10.8264C95.0581 10.8867 96.1286 11.2195 97.0519 11.8635C97.4275 12.122 97.779 12.4315 98.105 12.7948C98.7146 13.474 98.9408 14.1113 99.1477 14.8683C99.208 15.0844 99.2673 15.312 99.3336 15.556C99.3394 15.5774 99.3441 15.5995 99.3482 15.6217C99.3544 15.6446 99.3596 15.6777 99.3644 15.7157Z" fill="black"/>
<path d="M99.3961 15.8318C99.3609 15.7462 99.3583 15.6466 99.3336 15.556C99.0305 14.4416 98.8772 13.6673 98.0762 12.7748C96.9544 11.5249 95.5317 10.9105 93.8592 10.8264C91.3204 10.6987 88.6941 10.9726 86.1419 10.8681C84.88 10.8164 83.3748 10.2533 82.3598 9.50949C81.0709 8.56504 79.8128 6.94269 79.8415 3.07968C79.8076 3.10102 79.8211 3.15753 79.8206 3.1922C79.7959 5.19752 79.8254 9.7093 79.8282 11.7083C79.8778 11.6583 79.9148 11.7617 79.9241 11.7943C80.082 12.3419 80.1252 12.705 80.3867 13.2308C81.615 15.7002 84.2133 16.976 86.888 17.144C88.3995 17.239 90.0126 17.1224 91.5333 17.1024C92.5181 17.0894 93.5837 17.0102 94.5561 17.0619C98.4402 17.0619 99.4455 21.2441 99.4455 21.2441C99.4421 21.2277 99.4672 21.2505 99.4455 21.2441L99.4446 20.9348L99.4166 16.0472C99.4166 15.9963 99.3951 15.9087 99.3961 15.8318Z" fill="#F9DC35"/>
<path d="M83.228 21.6741C86.6011 23.797 90.3152 23.0266 94.0733 23.1747C95.586 23.2343 96.8983 23.6084 98.0837 24.5712C98.6019 24.992 99.0881 25.6559 99.3636 26.263C99.3596 26.2612 99.3688 26.2681 99.3636 26.263C99.3618 26.3434 99.3656 26.1827 99.3636 26.263C99.346 26.9448 99.4254 27.9445 99.1354 28.5578C98.4363 30.0368 97.2547 29.9668 95.8132 29.9875C93.0027 30.0279 90.1891 29.9545 87.3783 29.9874C84.3794 29.8557 82.0729 28.3288 80.7264 25.6788C79.744 23.7451 79.8506 22.0428 79.8578 19.9454C79.8612 18.9667 79.7782 17.7064 79.8357 16.7411C79.8231 16.6738 79.8454 16.8083 79.8357 16.7411C80.1862 18.6195 81.6437 20.677 83.228 21.6741Z" fill="#5E97E0"/>
<path d="M99.4166 15.4217C99.4158 15.5518 99.4182 15.9226 99.4166 16.0472C99.3814 15.9616 99.3728 15.7123 99.3482 15.6217C99.0451 14.5073 98.906 13.6873 98.105 12.7948C96.9832 11.5448 95.5606 10.9305 93.888 10.8463C91.3493 10.7187 88.7229 10.9926 86.1707 10.888C84.9088 10.8363 83.4036 10.2732 82.3886 9.52945C81.4808 8.86421 80.728 7.97453 80.2679 6.94269C80.0125 6.36987 79.84 3.97859 79.8229 3.34919C79.8153 3.07034 79.82 2.48424 79.8312 2.20544C79.8399 1.98798 79.8405 1.73216 79.9352 1.53112C79.9924 1.40988 80.2014 1.19329 80.3071 1.1037C81.2598 0.29531 82.297 1.83253 82.9066 2.4172C83.8758 3.34693 85.537 6.58568 86.9076 6.662C88.7619 6.76524 90.737 6.473 92.5682 6.85581C95.2424 7.41489 97.1198 8.7185 98.3917 11.1535C98.958 12.2375 99.4238 14.2019 99.4166 15.4217Z" fill="#F97979"/>
<path d="M79.9241 11.7943C79.9148 11.7617 79.8778 11.6583 79.8282 11.7083C79.8302 13.0886 79.7956 14.5007 79.8357 15.8834L79.8357 16.7411C79.8325 16.7212 79.8386 16.761 79.8357 16.7411C80.1862 18.6195 81.6437 20.677 83.228 21.6741C86.6011 23.797 90.3152 23.0266 94.0733 23.1747C95.586 23.2343 96.8983 23.6084 98.0837 24.5712C98.6019 24.992 99.0881 25.6559 99.3636 26.263C99.3636 26.263 99.3606 25.713 99.3628 25.4414C99.3736 24.1219 99.4498 22.5702 99.4455 21.2441C99.4455 21.2441 98.4402 17.0619 94.5561 17.0619C93.5837 17.0102 92.5181 17.0894 91.5333 17.1024C90.0126 17.1224 88.3995 17.239 86.888 17.144C84.2133 16.976 81.615 15.7002 80.3867 13.2308C80.1252 12.705 80.082 12.3419 79.9241 11.7943Z" fill="#71E179"/>
<path d="M99.3644 15.7157C99.3719 15.7558 99.381 15.7951 99.3961 15.8318C99.3951 15.9087 99.4166 15.9963 99.4166 16.0472C99.3903 15.9833 99.3788 15.828 99.3644 15.7157C99.3586 15.6845 99.354 15.653 99.3482 15.6217C99.2758 15.3554 99.2126 15.1059 99.1477 14.8683C98.9323 14.097 98.7019 13.472 98.0762 12.7748C97.7585 12.4209 97.4167 12.1179 97.0519 11.8635C96.1351 11.2325 95.0745 10.906 93.888 10.8463C91.3493 10.7187 88.7229 10.9926 86.1707 10.888C84.9524 10.8381 83.5072 10.3115 82.4955 9.60589C83.5057 10.3015 84.9351 10.8186 86.1419 10.8681C88.6941 10.9726 91.3204 10.6987 93.8592 10.8264C95.0581 10.8867 96.1286 11.2195 97.0519 11.8635C97.4275 12.122 97.779 12.4315 98.105 12.7948C98.7146 13.474 98.9408 14.1113 99.1477 14.8683C99.208 15.0844 99.2673 15.312 99.3336 15.556C99.3394 15.5774 99.3441 15.5995 99.3482 15.6217C99.3544 15.6446 99.3596 15.6777 99.3644 15.7157Z" fill="black"/>
<path d="M99.3961 15.8318C99.3609 15.7462 99.3583 15.6466 99.3336 15.556C99.0305 14.4416 98.8772 13.6673 98.0762 12.7748C96.9544 11.5249 95.5317 10.9105 93.8592 10.8264C91.3204 10.6987 88.6941 10.9726 86.1419 10.8681C84.88 10.8164 83.3748 10.2533 82.3598 9.50949C81.0709 8.56504 79.8128 6.94269 79.8415 3.07968C79.8076 3.10102 79.8211 3.15753 79.8206 3.1922C79.7959 5.19752 79.8254 9.7093 79.8282 11.7083C79.8778 11.6583 79.9148 11.7617 79.9241 11.7943C80.082 12.3419 80.1252 12.705 80.3867 13.2308C81.615 15.7002 84.2133 16.976 86.888 17.144C88.3995 17.239 90.0126 17.1224 91.5333 17.1024C92.5181 17.0894 93.5837 17.0102 94.5561 17.0619C98.4402 17.0619 99.4455 21.2441 99.4455 21.2441C99.4421 21.2277 99.4672 21.2505 99.4455 21.2441L99.4446 20.9348L99.4166 16.0472C99.4166 15.9963 99.3951 15.9087 99.3961 15.8318Z" fill="#F9DC35"/>
<path d="M83.228 21.6741C86.6011 23.797 90.3152 23.0266 94.0733 23.1747C95.586 23.2343 96.8983 23.6084 98.0837 24.5712C98.6019 24.992 99.0881 25.6559 99.3636 26.263C99.3596 26.2612 99.3688 26.2681 99.3636 26.263C99.3618 26.3434 99.3656 26.1827 99.3636 26.263C99.346 26.9448 99.4254 27.9445 99.1354 28.5578C98.4363 30.0368 97.2547 29.9668 95.8132 29.9875C93.0027 30.0279 90.1891 29.9545 87.3783 29.9874C84.3794 29.8557 82.0729 28.3288 80.7264 25.6788C79.744 23.7451 79.8506 22.0428 79.8578 19.9454C79.8612 18.9667 79.7782 17.7064 79.8357 16.7411C79.8231 16.6738 79.8454 16.8083 79.8357 16.7411C80.1862 18.6195 81.6437 20.677 83.228 21.6741Z" fill="#5E97E0"/>
<path d="M99.4166 15.4217C99.4158 15.5518 99.4182 15.9226 99.4166 16.0472C99.3814 15.9616 99.3728 15.7123 99.3482 15.6217C99.0451 14.5073 98.906 13.6873 98.105 12.7948C96.9832 11.5448 95.5606 10.9305 93.888 10.8463C91.3493 10.7187 88.7229 10.9926 86.1707 10.888C84.9088 10.8363 83.4036 10.2732 82.3886 9.52945C81.4808 8.86421 80.728 7.97453 80.2679 6.94269C80.0125 6.36987 79.84 3.97859 79.8229 3.34919C79.8153 3.07034 79.82 2.48424 79.8312 2.20544C79.8399 1.98798 79.8405 1.73216 79.9352 1.53112C79.9924 1.40988 80.2014 1.19329 80.3071 1.1037C81.2598 0.29531 82.297 1.83253 82.9066 2.4172C83.8758 3.34693 85.537 6.58568 86.9076 6.662C88.7619 6.76524 90.737 6.473 92.5682 6.85581C95.2424 7.41489 97.1198 8.7185 98.3917 11.1535C98.958 12.2375 99.4238 14.2019 99.4166 15.4217Z" fill="#F97979"/>
<path d="M9.05439 29.9168C5.044 29.9168 1.44705 28.9182 0 27.6699V22.6353C0 22.2608 0.28941 22.0527 0.950918 22.0527H2.81141C2.8941 24.6325 3.5556 25.5479 4.01039 25.7975C5.044 26.3801 6.69777 26.9626 8.93036 26.9626C11.9898 26.9626 14.9253 25.6727 14.9253 22.7185C14.9253 19.8475 14.0157 18.3495 8.51691 16.6436C3.84502 15.1873 0.0413443 13.2316 0.0413443 8.23857C0.0413443 3.7448 4.21711 0.915397 8.88901 0.915397C12.9407 0.915397 15.6281 1.83079 17.0752 3.07906V7.57283C17.0752 7.94731 16.7858 8.15535 16.1243 8.15535H14.2638C14.2638 6.0333 13.809 4.95146 13.3542 4.70181C12.2792 4.16089 10.8735 3.78641 9.01305 3.78641C6.40836 3.78641 3.63829 5.07629 3.63829 7.65604C3.63829 10.9431 5.45744 12.3162 9.59186 13.5645C15.7522 15.4369 18.5222 17.6422 18.5222 22.3024C18.5222 27.4203 13.8503 29.9168 9.05439 29.9168Z" fill="black"/>
<path d="M26.1044 4.82664C24.6573 4.82664 23.7064 3.78641 23.7064 2.41332C23.7064 1.04022 24.6573 0 26.1044 0C27.5928 0 28.5437 1.04022 28.5437 2.41332C28.5437 3.78641 27.5928 4.82664 26.1044 4.82664ZM22.1353 29.1679C21.6805 28.5437 21.5978 27.7532 21.8046 27.0458C24.1198 27.0458 24.6573 27.0458 24.6573 26.0888V13.1068C24.6573 12.3162 24.4919 12.0666 24.0785 12.0666H21.8046C21.6805 11.6089 21.5152 11.068 21.5152 10.7351C21.5152 10.4438 21.6805 10.2774 22.094 10.111C23.3756 9.61166 25.7323 9.11236 26.7245 9.11236C27.7995 9.11236 28.0889 9.69488 28.0889 10.4022V26.0472C28.0889 27.0042 28.4196 27.0458 30.2801 27.0458C30.6109 27.0458 30.859 27.2122 30.859 27.4203C30.859 28.0028 30.7349 28.5853 30.5282 29.1679H22.1353Z" fill="black"/>
<path d="M34.2479 29.1679C33.8344 28.6686 33.7518 27.8364 33.9171 27.0458C36.2324 27.0458 36.7699 27.0458 36.7699 26.0888V12.4827C36.7699 11.6921 36.6045 11.4425 36.1911 11.4425H33.9171C33.7931 10.9848 33.6277 10.4438 33.6277 10.1526C33.6277 9.81971 33.7931 9.65327 34.2065 9.48684C35.4882 8.98753 37.8448 8.48822 38.8371 8.48822C39.9121 8.48822 40.2015 9.07075 40.2015 9.7781V11.6505C41.6072 9.94453 43.7984 8.48822 46.4444 8.48822C50.4962 8.48822 53.0595 11.3176 53.0595 15.7282V26.0472C53.0595 26.9626 53.4316 27.0458 55.2921 27.0458C55.6229 27.0458 55.8709 27.2122 55.8709 27.4203C55.8709 28.0028 55.7469 28.6269 55.5402 29.1679H47.23C46.8165 28.6686 46.7338 27.8364 46.8992 27.0458C49.1732 27.0458 49.6279 27.0458 49.6279 26.0888V17.1013C49.6279 13.19 48.553 11.5673 45.6176 11.5673C43.8811 11.5673 41.6485 12.982 40.2015 14.896V26.0472C40.2015 26.9626 40.4909 27.0458 42.2687 27.0458C42.5994 27.0458 42.8475 27.2122 42.8475 27.4203C42.8475 28.0028 42.7235 28.6269 42.5167 29.1679H34.2479Z" fill="black"/>
<path d="M64.664 29.6672C60.0748 29.6672 58.5037 27.0458 58.5037 24.2164C58.5037 20.2635 61.3978 17.6422 66.5245 17.6422H70.9897V16.5604C70.9897 12.6491 69.7907 11.276 66.6485 11.276C65.1601 11.276 64.0438 11.5673 63.1756 12.1914C62.7208 12.5243 62.4314 14.1886 62.3901 15.104H60.8603C60.1988 15.104 59.7854 14.9376 59.7854 14.5215V11.068C61.3151 9.73649 63.5891 8.48822 66.9793 8.48822C71.4858 8.48822 74.4212 11.1096 74.4212 15.7282V26.0056C74.4212 26.2968 74.4626 26.7545 74.5866 27.0042H77.1086C77.274 27.3787 77.3567 27.8364 77.3567 28.5853C76.5298 29.1263 74.752 29.6256 73.3876 29.6256C72.2713 29.6256 71.4858 28.3773 71.1137 27.4203C69.5426 28.7102 67.1447 29.6672 64.664 29.6672ZM65.2015 26.921C67.31 26.921 69.5013 26.0888 70.9897 24.4661V20.0971H66.8139C63.9612 20.0971 61.9353 21.387 61.9353 23.8419C61.9353 26.0056 63.1343 26.921 65.2015 26.921Z" fill="black"/>
<path d="M103.169 29.1679C102.715 28.5853 102.591 27.8364 102.797 27.0458C105.113 27.0458 105.65 27.0458 105.65 26.0472V12.4827C105.65 11.6921 105.485 11.4425 105.071 11.4425H102.797C102.673 10.9848 102.508 10.4438 102.508 10.1526C102.508 9.81971 102.673 9.65327 103.087 9.48684C104.368 8.98753 106.684 8.48822 107.593 8.48822C108.668 8.48822 108.958 9.07075 108.958 9.7781V12.1498C110.157 9.86132 111.934 8.48822 114.208 8.48822C115.655 8.48822 116.937 8.98753 117.764 9.69488V14.1054C117.764 14.5215 117.474 14.688 116.854 14.688H115.242C115.201 13.5229 115.159 12.0666 114.87 11.8585C114.415 11.5257 114.126 11.4008 113.299 11.4008C112.306 11.4008 109.95 12.6907 109.082 16.3939V26.0472C109.082 27.0042 109.371 27.0458 111.893 27.0458C112.182 27.0458 112.472 27.1706 112.472 27.4203C112.472 28.0028 112.348 28.6269 112.141 29.1679H103.169Z" fill="black"/>
<path d="M130.119 29.6672C124.455 29.6672 120.237 25.8808 120.237 19.0569C120.237 12.233 124.455 8.48822 130.119 8.48822C135.783 8.48822 140 12.233 140 19.0569C140 25.8808 135.783 29.6672 130.119 29.6672ZM130.119 26.8378C133.881 26.8378 136.527 23.8419 136.527 19.0569C136.527 14.1886 133.881 11.3176 130.119 11.3176C126.356 11.3176 123.71 14.1886 123.71 19.0569C123.71 23.8419 126.356 26.8378 130.119 26.8378Z" fill="black"/>
<path d="M79.9241 11.7943C79.9148 11.7617 79.8778 11.6583 79.8282 11.7083C79.8302 13.0886 79.7956 14.5007 79.8357 15.8834L79.8357 16.7411C79.8325 16.7212 79.8386 16.761 79.8357 16.7411C80.1862 18.6195 81.6437 20.677 83.228 21.6741C86.6011 23.797 90.3152 23.0266 94.0733 23.1747C95.586 23.2343 96.8983 23.6084 98.0837 24.5712C98.6019 24.992 99.0881 25.6559 99.3636 26.263C99.3636 26.263 99.3606 25.713 99.3628 25.4414C99.3736 24.1219 99.4498 22.5702 99.4455 21.2441C99.4455 21.2441 98.4402 17.0619 94.5561 17.0619C93.5837 17.0102 92.5181 17.0894 91.5333 17.1024C90.0126 17.1224 88.3995 17.239 86.888 17.144C84.2133 16.976 81.615 15.7002 80.3867 13.2308C80.1252 12.705 80.082 12.3419 79.9241 11.7943Z" fill="#71E179"/>
<path d="M99.3644 15.7157C99.3719 15.7558 99.381 15.7951 99.3961 15.8318C99.3951 15.9087 99.4166 15.9963 99.4166 16.0472C99.3903 15.9833 99.3788 15.828 99.3644 15.7157C99.3586 15.6845 99.354 15.653 99.3482 15.6217C99.2758 15.3554 99.2126 15.1059 99.1477 14.8683C98.9323 14.097 98.7019 13.472 98.0762 12.7748C97.7585 12.4209 97.4167 12.1179 97.0519 11.8635C96.1351 11.2325 95.0745 10.906 93.888 10.8463C91.3493 10.7187 88.7229 10.9926 86.1707 10.888C84.9524 10.8381 83.5072 10.3115 82.4955 9.60589C83.5057 10.3015 84.9351 10.8186 86.1419 10.8681C88.6941 10.9726 91.3204 10.6987 93.8592 10.8264C95.0581 10.8867 96.1286 11.2195 97.0519 11.8635C97.4275 12.122 97.779 12.4315 98.105 12.7948C98.7146 13.474 98.9408 14.1113 99.1477 14.8683C99.208 15.0844 99.2673 15.312 99.3336 15.556C99.3394 15.5774 99.3441 15.5995 99.3482 15.6217C99.3544 15.6446 99.3596 15.6777 99.3644 15.7157Z" fill="black"/>
<path d="M99.3961 15.8318C99.3609 15.7462 99.3583 15.6466 99.3336 15.556C99.0305 14.4416 98.8772 13.6673 98.0762 12.7748C96.9544 11.5249 95.5317 10.9105 93.8592 10.8264C91.3204 10.6987 88.6941 10.9726 86.1419 10.8681C84.88 10.8164 83.3748 10.2533 82.3598 9.50949C81.0709 8.56504 79.8128 6.94269 79.8415 3.07968C79.8076 3.10102 79.8211 3.15753 79.8206 3.1922C79.7959 5.19752 79.8254 9.7093 79.8282 11.7083C79.8778 11.6583 79.9148 11.7617 79.9241 11.7943C80.082 12.3419 80.1252 12.705 80.3867 13.2308C81.615 15.7002 84.2133 16.976 86.888 17.144C88.3995 17.239 90.0126 17.1224 91.5333 17.1024C92.5181 17.0894 93.5837 17.0102 94.5561 17.0619C98.4402 17.0619 99.4455 21.2441 99.4455 21.2441C99.4421 21.2277 99.4672 21.2505 99.4455 21.2441L99.4446 20.9348L99.4166 16.0472C99.4166 15.9963 99.3951 15.9087 99.3961 15.8318Z" fill="#F9DC35"/>
<path d="M83.228 21.6741C86.6011 23.797 90.3152 23.0266 94.0733 23.1747C95.586 23.2343 96.8983 23.6084 98.0837 24.5712C98.6019 24.992 99.0881 25.6559 99.3636 26.263C99.3596 26.2612 99.3688 26.2681 99.3636 26.263C99.3618 26.3434 99.3656 26.1827 99.3636 26.263C99.346 26.9448 99.4254 27.9445 99.1354 28.5578C98.4363 30.0368 97.2547 29.9668 95.8132 29.9875C93.0027 30.0279 90.1891 29.9545 87.3783 29.9874C84.3794 29.8557 82.0729 28.3288 80.7264 25.6788C79.744 23.7451 79.8506 22.0428 79.8578 19.9454C79.8612 18.9667 79.7782 17.7064 79.8357 16.7411C79.8231 16.6738 79.8454 16.8083 79.8357 16.7411C80.1862 18.6195 81.6437 20.677 83.228 21.6741Z" fill="#5E97E0"/>
<path d="M99.4166 15.4217C99.4158 15.5518 99.4182 15.9226 99.4166 16.0472C99.3814 15.9616 99.3728 15.7123 99.3482 15.6217C99.0451 14.5073 98.906 13.6873 98.105 12.7948C96.9832 11.5448 95.5606 10.9305 93.888 10.8463C91.3493 10.7187 88.7229 10.9926 86.1707 10.888C84.9088 10.8363 83.4036 10.2732 82.3886 9.52945C81.4808 8.86421 80.728 7.97453 80.2679 6.94269C80.0125 6.36987 79.84 3.97859 79.8229 3.34919C79.8153 3.07034 79.82 2.48424 79.8312 2.20544C79.8399 1.98798 79.8405 1.73216 79.9352 1.53112C79.9924 1.40988 80.2014 1.19329 80.3071 1.1037C81.2598 0.29531 82.297 1.83253 82.9066 2.4172C83.8758 3.34693 85.537 6.58568 86.9076 6.662C88.7619 6.76524 90.737 6.473 92.5682 6.85581C95.2424 7.41489 97.1198 8.7185 98.3917 11.1535C98.958 12.2375 99.4238 14.2019 99.4166 15.4217Z" fill="#F97979"/>
<path d="M79.9241 11.7943C79.9148 11.7617 79.8778 11.6583 79.8282 11.7083C79.8302 13.0886 79.7956 14.5007 79.8357 15.8834L79.8357 16.7411C79.8325 16.7212 79.8386 16.761 79.8357 16.7411C80.1862 18.6195 81.6437 20.677 83.228 21.6741C86.6011 23.797 90.3152 23.0266 94.0733 23.1747C95.586 23.2343 96.8983 23.6084 98.0837 24.5712C98.6019 24.992 99.0881 25.6559 99.3636 26.263C99.3636 26.263 99.3606 25.713 99.3628 25.4414C99.3736 24.1219 99.4498 22.5702 99.4455 21.2441C99.4455 21.2441 98.4402 17.0619 94.5561 17.0619C93.5837 17.0102 92.5181 17.0894 91.5333 17.1024C90.0126 17.1224 88.3995 17.239 86.888 17.144C84.2133 16.976 81.615 15.7002 80.3867 13.2308C80.1252 12.705 80.082 12.3419 79.9241 11.7943Z" fill="#71E179"/>
<path d="M99.3644 15.7157C99.3719 15.7558 99.381 15.7951 99.3961 15.8318C99.3951 15.9087 99.4166 15.9963 99.4166 16.0472C99.3903 15.9833 99.3788 15.828 99.3644 15.7157C99.3586 15.6845 99.354 15.653 99.3482 15.6217C99.2758 15.3554 99.2126 15.1059 99.1477 14.8683C98.9323 14.097 98.7019 13.472 98.0762 12.7748C97.7585 12.4209 97.4167 12.1179 97.0519 11.8635C96.1351 11.2325 95.0745 10.906 93.888 10.8463C91.3493 10.7187 88.7229 10.9926 86.1707 10.888C84.9524 10.8381 83.5072 10.3115 82.4955 9.60589C83.5057 10.3015 84.9351 10.8186 86.1419 10.8681C88.6941 10.9726 91.3204 10.6987 93.8592 10.8264C95.0581 10.8867 96.1286 11.2195 97.0519 11.8635C97.4275 12.122 97.779 12.4315 98.105 12.7948C98.7146 13.474 98.9408 14.1113 99.1477 14.8683C99.208 15.0844 99.2673 15.312 99.3336 15.556C99.3394 15.5774 99.3441 15.5995 99.3482 15.6217C99.3544 15.6446 99.3596 15.6777 99.3644 15.7157Z" fill="black"/>
<path d="M99.3961 15.8318C99.3609 15.7462 99.3583 15.6466 99.3336 15.556C99.0305 14.4416 98.8772 13.6673 98.0762 12.7748C96.9544 11.5249 95.5317 10.9105 93.8592 10.8264C91.3204 10.6987 88.6941 10.9726 86.1419 10.8681C84.88 10.8164 83.3748 10.2533 82.3598 9.50949C81.0709 8.56504 79.8128 6.94269 79.8415 3.07968C79.8076 3.10102 79.8211 3.15753 79.8206 3.1922C79.7959 5.19752 79.8254 9.7093 79.8282 11.7083C79.8778 11.6583 79.9148 11.7617 79.9241 11.7943C80.082 12.3419 80.1252 12.705 80.3867 13.2308C81.615 15.7002 84.2133 16.976 86.888 17.144C88.3995 17.239 90.0126 17.1224 91.5333 17.1024C92.5181 17.0894 93.5837 17.0102 94.5561 17.0619C98.4402 17.0619 99.4455 21.2441 99.4455 21.2441C99.4421 21.2277 99.4672 21.2505 99.4455 21.2441L99.4446 20.9348L99.4166 16.0472C99.4166 15.9963 99.3951 15.9087 99.3961 15.8318Z" fill="#F9DC35"/>
<path d="M83.228 21.6741C86.6011 23.797 90.3152 23.0266 94.0733 23.1747C95.586 23.2343 96.8983 23.6084 98.0837 24.5712C98.6019 24.992 99.0881 25.6559 99.3636 26.263C99.3596 26.2612 99.3688 26.2681 99.3636 26.263C99.3618 26.3434 99.3656 26.1827 99.3636 26.263C99.346 26.9448 99.4254 27.9445 99.1354 28.5578C98.4363 30.0368 97.2547 29.9668 95.8132 29.9875C93.0027 30.0279 90.1891 29.9545 87.3783 29.9874C84.3794 29.8557 82.0729 28.3288 80.7264 25.6788C79.744 23.7451 79.8506 22.0428 79.8578 19.9454C79.8612 18.9667 79.7782 17.7064 79.8357 16.7411C79.8231 16.6738 79.8454 16.8083 79.8357 16.7411C80.1862 18.6195 81.6437 20.677 83.228 21.6741Z" fill="#5E97E0"/>
<path d="M99.4166 15.4217C99.4158 15.5518 99.4182 15.9226 99.4166 16.0472C99.3814 15.9616 99.3728 15.7123 99.3482 15.6217C99.0451 14.5073 98.906 13.6873 98.105 12.7948C96.9832 11.5448 95.5606 10.9305 93.888 10.8463C91.3493 10.7187 88.7229 10.9926 86.1707 10.888C84.9088 10.8363 83.4036 10.2732 82.3886 9.52945C81.4808 8.86421 80.728 7.97453 80.2679 6.94269C80.0125 6.36987 79.84 3.97859 79.8229 3.34919C79.8153 3.07034 79.82 2.48424 79.8312 2.20544C79.8399 1.98798 79.8405 1.73216 79.9352 1.53112C79.9924 1.40988 80.2014 1.19329 80.3071 1.1037C81.2598 0.29531 82.297 1.83253 82.9066 2.4172C83.8758 3.34693 85.537 6.58568 86.9076 6.662C88.7619 6.76524 90.737 6.473 92.5682 6.85581C95.2424 7.41489 97.1198 8.7185 98.3917 11.1535C98.958 12.2375 99.4238 14.2019 99.4166 15.4217Z" fill="#F97979"/>
<path d="M79.9241 11.7943C79.9148 11.7617 79.8778 11.6583 79.8282 11.7083C79.8302 13.0886 79.7956 14.5007 79.8357 15.8834L79.8357 16.7411C79.8325 16.7212 79.8386 16.761 79.8357 16.7411C80.1862 18.6195 81.6437 20.677 83.228 21.6741C86.6011 23.797 90.3152 23.0266 94.0733 23.1747C95.586 23.2343 96.8983 23.6084 98.0837 24.5712C98.6019 24.992 99.0881 25.6559 99.3636 26.263C99.3636 26.263 99.3606 25.713 99.3628 25.4414C99.3736 24.1219 99.4498 22.5702 99.4455 21.2441C99.4455 21.2441 98.4402 17.0619 94.5561 17.0619C93.5837 17.0102 92.5181 17.0894 91.5333 17.1024C90.0126 17.1224 88.3995 17.239 86.888 17.144C84.2133 16.976 81.615 15.7002 80.3867 13.2308C80.1252 12.705 80.082 12.3419 79.9241 11.7943Z" fill="#71E179"/>
<path d="M99.3644 15.7157C99.3719 15.7558 99.381 15.7951 99.3961 15.8318C99.3951 15.9087 99.4166 15.9963 99.4166 16.0472C99.3903 15.9833 99.3788 15.828 99.3644 15.7157C99.3586 15.6845 99.354 15.653 99.3482 15.6217C99.2758 15.3554 99.2126 15.1059 99.1477 14.8683C98.9323 14.097 98.7019 13.472 98.0762 12.7748C97.7585 12.4209 97.4167 12.1179 97.0519 11.8635C96.1351 11.2325 95.0745 10.906 93.888 10.8463C91.3493 10.7187 88.7229 10.9926 86.1707 10.888C84.9524 10.8381 83.5072 10.3115 82.4955 9.60589C83.5057 10.3015 84.9351 10.8186 86.1419 10.8681C88.6941 10.9726 91.3204 10.6987 93.8592 10.8264C95.0581 10.8867 96.1286 11.2195 97.0519 11.8635C97.4275 12.122 97.779 12.4315 98.105 12.7948C98.7146 13.474 98.9408 14.1113 99.1477 14.8683C99.208 15.0844 99.2673 15.312 99.3336 15.556C99.3394 15.5774 99.3441 15.5995 99.3482 15.6217C99.3544 15.6446 99.3596 15.6777 99.3644 15.7157Z" fill="black"/>
<path d="M99.3961 15.8318C99.3609 15.7462 99.3583 15.6466 99.3336 15.556C99.0305 14.4416 98.8772 13.6673 98.0762 12.7748C96.9544 11.5249 95.5317 10.9105 93.8592 10.8264C91.3204 10.6987 88.6941 10.9726 86.1419 10.8681C84.88 10.8164 83.3748 10.2533 82.3598 9.50949C81.0709 8.56504 79.8128 6.94269 79.8415 3.07968C79.8076 3.10102 79.8211 3.15753 79.8206 3.1922C79.7959 5.19752 79.8254 9.7093 79.8282 11.7083C79.8778 11.6583 79.9148 11.7617 79.9241 11.7943C80.082 12.3419 80.1252 12.705 80.3867 13.2308C81.615 15.7002 84.2133 16.976 86.888 17.144C88.3995 17.239 90.0126 17.1224 91.5333 17.1024C92.5181 17.0894 93.5837 17.0102 94.5561 17.0619C98.4402 17.0619 99.4455 21.2441 99.4455 21.2441C99.4421 21.2277 99.4672 21.2505 99.4455 21.2441L99.4446 20.9348L99.4166 16.0472C99.4166 15.9963 99.3951 15.9087 99.3961 15.8318Z" fill="#F9DC35"/>
<path d="M83.228 21.6741C86.6011 23.797 90.3152 23.0266 94.0733 23.1747C95.586 23.2343 96.8983 23.6084 98.0837 24.5712C98.6019 24.992 99.0881 25.6559 99.3636 26.263C99.3596 26.2612 99.3688 26.2681 99.3636 26.263C99.3618 26.3434 99.3656 26.1827 99.3636 26.263C99.346 26.9448 99.4254 27.9445 99.1354 28.5578C98.4363 30.0368 97.2547 29.9668 95.8132 29.9875C93.0027 30.0279 90.1891 29.9545 87.3783 29.9874C84.3794 29.8557 82.0729 28.3288 80.7264 25.6788C79.744 23.7451 79.8506 22.0428 79.8578 19.9454C79.8612 18.9667 79.7782 17.7064 79.8357 16.7411C79.8231 16.6738 79.8454 16.8083 79.8357 16.7411C80.1862 18.6195 81.6437 20.677 83.228 21.6741Z" fill="#5E97E0"/>
<path d="M99.4166 15.4217C99.4158 15.5518 99.4182 15.9226 99.4166 16.0472C99.3814 15.9616 99.3728 15.7123 99.3482 15.6217C99.0451 14.5073 98.906 13.6873 98.105 12.7948C96.9832 11.5448 95.5606 10.9305 93.888 10.8463C91.3493 10.7187 88.7229 10.9926 86.1707 10.888C84.9088 10.8363 83.4036 10.2732 82.3886 9.52945C81.4808 8.86421 80.728 7.97453 80.2679 6.94269C80.0125 6.36987 79.84 3.97859 79.8229 3.34919C79.8153 3.07034 79.82 2.48424 79.8312 2.20544C79.8399 1.98798 79.8405 1.73216 79.9352 1.53112C79.9924 1.40988 80.2014 1.19329 80.3071 1.1037C81.2598 0.29531 82.297 1.83253 82.9066 2.4172C83.8758 3.34693 85.537 6.58568 86.9076 6.662C88.7619 6.76524 90.737 6.473 92.5682 6.85581C95.2424 7.41489 97.1198 8.7185 98.3917 11.1535C98.958 12.2375 99.4238 14.2019 99.4166 15.4217Z" fill="#F97979"/>
<path d="M79.9241 11.7943C79.9148 11.7617 79.8778 11.6583 79.8282 11.7083C79.8302 13.0886 79.7956 14.5007 79.8357 15.8834L79.8357 16.7411C79.8325 16.7212 79.8386 16.761 79.8357 16.7411C80.1862 18.6195 81.6437 20.677 83.228 21.6741C86.6011 23.797 90.3152 23.0266 94.0733 23.1747C95.586 23.2343 96.8983 23.6084 98.0837 24.5712C98.6019 24.992 99.0881 25.6559 99.3636 26.263C99.3636 26.263 99.3606 25.713 99.3628 25.4414C99.3736 24.1219 99.4498 22.5702 99.4455 21.2441C99.4455 21.2441 98.4402 17.0619 94.5561 17.0619C93.5837 17.0102 92.5181 17.0894 91.5333 17.1024C90.0126 17.1224 88.3995 17.239 86.888 17.144C84.2133 16.976 81.615 15.7002 80.3867 13.2308C80.1252 12.705 80.082 12.3419 79.9241 11.7943Z" fill="#71E179"/>
<path d="M99.3644 15.7157C99.3719 15.7558 99.381 15.7951 99.3961 15.8318C99.3951 15.9087 99.4166 15.9963 99.4166 16.0472C99.3903 15.9833 99.3788 15.828 99.3644 15.7157C99.3586 15.6845 99.354 15.653 99.3482 15.6217C99.2758 15.3554 99.2126 15.1059 99.1477 14.8683C98.9323 14.097 98.7019 13.472 98.0762 12.7748C97.7585 12.4209 97.4167 12.1179 97.0519 11.8635C96.1351 11.2325 95.0745 10.906 93.888 10.8463C91.3493 10.7187 88.7229 10.9926 86.1707 10.888C84.9524 10.8381 83.5072 10.3115 82.4955 9.60589C83.5057 10.3015 84.9351 10.8186 86.1419 10.8681C88.6941 10.9726 91.3204 10.6987 93.8592 10.8264C95.0581 10.8867 96.1286 11.2195 97.0519 11.8635C97.4275 12.122 97.779 12.4315 98.105 12.7948C98.7146 13.474 98.9408 14.1113 99.1477 14.8683C99.208 15.0844 99.2673 15.312 99.3336 15.556C99.3394 15.5774 99.3441 15.5995 99.3482 15.6217C99.3544 15.6446 99.3596 15.6777 99.3644 15.7157Z" fill="black"/>
<path d="M99.3961 15.8318C99.3609 15.7462 99.3583 15.6466 99.3336 15.556C99.0305 14.4416 98.8772 13.6673 98.0762 12.7748C96.9544 11.5249 95.5317 10.9105 93.8592 10.8264C91.3204 10.6987 88.6941 10.9726 86.1419 10.8681C84.88 10.8164 83.3748 10.2533 82.3598 9.50949C81.0709 8.56504 79.8128 6.94269 79.8415 3.07968C79.8076 3.10102 79.8211 3.15753 79.8206 3.1922C79.7959 5.19752 79.8254 9.7093 79.8282 11.7083C79.8778 11.6583 79.9148 11.7617 79.9241 11.7943C80.082 12.3419 80.1252 12.705 80.3867 13.2308C81.615 15.7002 84.2133 16.976 86.888 17.144C88.3995 17.239 90.0126 17.1224 91.5333 17.1024C92.5181 17.0894 93.5837 17.0102 94.5561 17.0619C98.4402 17.0619 99.4455 21.2441 99.4455 21.2441C99.4421 21.2277 99.4672 21.2505 99.4455 21.2441L99.4446 20.9348L99.4166 16.0472C99.4166 15.9963 99.3951 15.9087 99.3961 15.8318Z" fill="#F9DC35"/>
<path d="M83.228 21.6741C86.6011 23.797 90.3152 23.0266 94.0733 23.1747C95.586 23.2343 96.8983 23.6084 98.0837 24.5712C98.6019 24.992 99.0881 25.6559 99.3636 26.263C99.3596 26.2612 99.3688 26.2681 99.3636 26.263C99.3618 26.3434 99.3656 26.1827 99.3636 26.263C99.346 26.9448 99.4254 27.9445 99.1354 28.5578C98.4363 30.0368 97.2547 29.9668 95.8132 29.9875C93.0027 30.0279 90.1891 29.9545 87.3783 29.9874C84.3794 29.8557 82.0729 28.3288 80.7264 25.6788C79.744 23.7451 79.8506 22.0428 79.8578 19.9454C79.8612 18.9667 79.7782 17.7064 79.8357 16.7411C79.8231 16.6738 79.8454 16.8083 79.8357 16.7411C80.1862 18.6195 81.6437 20.677 83.228 21.6741Z" fill="#5E97E0"/>
<path d="M99.4166 15.4217C99.4158 15.5518 99.4182 15.9226 99.4166 16.0472C99.3814 15.9616 99.3728 15.7123 99.3482 15.6217C99.0451 14.5073 98.906 13.6873 98.105 12.7948C96.9832 11.5448 95.5606 10.9305 93.888 10.8463C91.3493 10.7187 88.7229 10.9926 86.1707 10.888C84.9088 10.8363 83.4036 10.2732 82.3886 9.52945C81.4808 8.86421 80.728 7.97453 80.2679 6.94269C80.0125 6.36987 79.84 3.97859 79.8229 3.34919C79.8153 3.07034 79.82 2.48424 79.8312 2.20544C79.8399 1.98798 79.8405 1.73216 79.9352 1.53112C79.9924 1.40988 80.2014 1.19329 80.3071 1.1037C81.2598 0.29531 82.297 1.83253 82.9066 2.4172C83.8758 3.34693 85.537 6.58568 86.9076 6.662C88.7619 6.76524 90.737 6.473 92.5682 6.85581C95.2424 7.41489 97.1198 8.7185 98.3917 11.1535C98.958 12.2375 99.4238 14.2019 99.4166 15.4217Z" fill="#F97979"/>
<path d="M79.9241 11.7943C79.9148 11.7617 79.8778 11.6583 79.8282 11.7083C79.8302 13.0886 79.7956 14.5007 79.8357 15.8834L79.8357 16.7411C79.8325 16.7212 79.8386 16.761 79.8357 16.7411C80.1862 18.6195 81.6437 20.677 83.228 21.6741C86.6011 23.797 90.3152 23.0266 94.0733 23.1747C95.586 23.2343 96.8983 23.6084 98.0837 24.5712C98.6019 24.992 99.0881 25.6559 99.3636 26.263C99.3636 26.263 99.3606 25.713 99.3628 25.4414C99.3736 24.1219 99.4498 22.5702 99.4455 21.2441C99.4455 21.2441 98.4402 17.0619 94.5561 17.0619C93.5837 17.0102 92.5181 17.0894 91.5333 17.1024C90.0126 17.1224 88.3995 17.239 86.888 17.144C84.2133 16.976 81.615 15.7002 80.3867 13.2308C80.1252 12.705 80.082 12.3419 79.9241 11.7943Z" fill="#71E179"/>
<path d="M99.3644 15.7157C99.3719 15.7558 99.381 15.7951 99.3961 15.8318C99.3951 15.9087 99.4166 15.9963 99.4166 16.0472C99.3903 15.9833 99.3788 15.828 99.3644 15.7157C99.3586 15.6845 99.354 15.653 99.3482 15.6217C99.2758 15.3554 99.2126 15.1059 99.1477 14.8683C98.9323 14.097 98.7019 13.472 98.0762 12.7748C97.7585 12.4209 97.4167 12.1179 97.0519 11.8635C96.1351 11.2325 95.0745 10.906 93.888 10.8463C91.3493 10.7187 88.7229 10.9926 86.1707 10.888C84.9524 10.8381 83.5072 10.3115 82.4955 9.60589C83.5057 10.3015 84.9351 10.8186 86.1419 10.8681C88.6941 10.9726 91.3204 10.6987 93.8592 10.8264C95.0581 10.8867 96.1286 11.2195 97.0519 11.8635C97.4275 12.122 97.779 12.4315 98.105 12.7948C98.7146 13.474 98.9408 14.1113 99.1477 14.8683C99.208 15.0844 99.2673 15.312 99.3336 15.556C99.3394 15.5774 99.3441 15.5995 99.3482 15.6217C99.3544 15.6446 99.3596 15.6777 99.3644 15.7157Z" fill="black"/>
<path d="M99.3961 15.8318C99.3609 15.7462 99.3583 15.6466 99.3336 15.556C99.0305 14.4416 98.8772 13.6673 98.0762 12.7748C96.9544 11.5249 95.5317 10.9105 93.8592 10.8264C91.3204 10.6987 88.6941 10.9726 86.1419 10.8681C84.88 10.8164 83.3748 10.2533 82.3598 9.50949C81.0709 8.56504 79.8128 6.94269 79.8415 3.07968C79.8076 3.10102 79.8211 3.15753 79.8206 3.1922C79.7959 5.19752 79.8254 9.7093 79.8282 11.7083C79.8778 11.6583 79.9148 11.7617 79.9241 11.7943C80.082 12.3419 80.1252 12.705 80.3867 13.2308C81.615 15.7002 84.2133 16.976 86.888 17.144C88.3995 17.239 90.0126 17.1224 91.5333 17.1024C92.5181 17.0894 93.5837 17.0102 94.5561 17.0619C98.4402 17.0619 99.4455 21.2441 99.4455 21.2441C99.4421 21.2277 99.4672 21.2505 99.4455 21.2441L99.4446 20.9348L99.4166 16.0472C99.4166 15.9963 99.3951 15.9087 99.3961 15.8318Z" fill="#F9DC35"/>
<path d="M83.228 21.6741C86.6011 23.797 90.3152 23.0266 94.0733 23.1747C95.586 23.2343 96.8983 23.6084 98.0837 24.5712C98.6019 24.992 99.0881 25.6559 99.3636 26.263C99.3596 26.2612 99.3688 26.2681 99.3636 26.263C99.3618 26.3434 99.3656 26.1827 99.3636 26.263C99.346 26.9448 99.4254 27.9445 99.1354 28.5578C98.4363 30.0368 97.2547 29.9668 95.8132 29.9875C93.0027 30.0279 90.1891 29.9545 87.3783 29.9874C84.3794 29.8557 82.0729 28.3288 80.7264 25.6788C79.744 23.7451 79.8506 22.0428 79.8578 19.9454C79.8612 18.9667 79.7782 17.7064 79.8357 16.7411C79.8231 16.6738 79.8454 16.8083 79.8357 16.7411C80.1862 18.6195 81.6437 20.677 83.228 21.6741Z" fill="#5E97E0"/>
<path d="M99.4166 15.4217C99.4158 15.5518 99.4182 15.9226 99.4166 16.0472C99.3814 15.9616 99.3728 15.7123 99.3482 15.6217C99.0451 14.5073 98.906 13.6873 98.105 12.7948C96.9832 11.5448 95.5606 10.9305 93.888 10.8463C91.3493 10.7187 88.7229 10.9926 86.1707 10.888C84.9088 10.8363 83.4036 10.2732 82.3886 9.52945C81.4808 8.86421 80.728 7.97453 80.2679 6.94269C80.0125 6.36987 79.84 3.97859 79.8229 3.34919C79.8153 3.07034 79.82 2.48424 79.8312 2.20544C79.8399 1.98798 79.8405 1.73216 79.9352 1.53112C79.9924 1.40988 80.2014 1.19329 80.3071 1.1037C81.2598 0.29531 82.297 1.83253 82.9066 2.4172C83.8758 3.34693 85.537 6.58568 86.9076 6.662C88.7619 6.76524 90.737 6.473 92.5682 6.85581C95.2424 7.41489 97.1198 8.7185 98.3917 11.1535C98.958 12.2375 99.4238 14.2019 99.4166 15.4217Z" fill="#F97979"/>
<path d="M79.9241 11.7943C79.9148 11.7617 79.8778 11.6583 79.8282 11.7083C79.8302 13.0886 79.7956 14.5007 79.8357 15.8834L79.8357 16.7411C79.8325 16.7212 79.8386 16.761 79.8357 16.7411C80.1862 18.6195 81.6437 20.677 83.228 21.6741C86.6011 23.797 90.3152 23.0266 94.0733 23.1747C95.586 23.2343 96.8983 23.6084 98.0837 24.5712C98.6019 24.992 99.0881 25.6559 99.3636 26.263C99.3636 26.263 99.3606 25.713 99.3628 25.4414C99.3736 24.1219 99.4498 22.5702 99.4455 21.2441C99.4455 21.2441 98.4402 17.0619 94.5561 17.0619C93.5837 17.0102 92.5181 17.0894 91.5333 17.1024C90.0126 17.1224 88.3995 17.239 86.888 17.144C84.2133 16.976 81.615 15.7002 80.3867 13.2308C80.1252 12.705 80.082 12.3419 79.9241 11.7943Z" fill="#71E179"/>
<path d="M99.3644 15.7157C99.3719 15.7558 99.381 15.7951 99.3961 15.8318C99.3951 15.9087 99.4166 15.9963 99.4166 16.0472C99.3903 15.9833 99.3788 15.828 99.3644 15.7157C99.3586 15.6845 99.354 15.653 99.3482 15.6217C99.2758 15.3554 99.2126 15.1059 99.1477 14.8683C98.9323 14.097 98.7019 13.472 98.0762 12.7748C97.7585 12.4209 97.4167 12.1179 97.0519 11.8635C96.1351 11.2325 95.0745 10.906 93.888 10.8463C91.3493 10.7187 88.7229 10.9926 86.1707 10.888C84.9524 10.8381 83.5072 10.3115 82.4955 9.60589C83.5057 10.3015 84.9351 10.8186 86.1419 10.8681C88.6941 10.9726 91.3204 10.6987 93.8592 10.8264C95.0581 10.8867 96.1286 11.2195 97.0519 11.8635C97.4275 12.122 97.779 12.4315 98.105 12.7948C98.7146 13.474 98.9408 14.1113 99.1477 14.8683C99.208 15.0844 99.2673 15.312 99.3336 15.556C99.3394 15.5774 99.3441 15.5995 99.3482 15.6217C99.3544 15.6446 99.3596 15.6777 99.3644 15.7157Z" fill="black"/>
</svg>
