<svg width="136" height="29" viewBox="0 0 136 29" fill="none" xmlns="http://www.w3.org/2000/svg">
<path d="M96.2121 20.9384C96.2135 20.8983 96.2197 20.6921 96.2121 20.6818C96.2096 20.6786 96.1836 20.6837 96.1725 20.682C96.175 20.7263 96.1648 20.9283 96.1725 20.9385C96.1749 20.9418 96.201 20.9366 96.2121 20.9384Z" fill="#5C945C"/>
<path d="M96.1644 15.2196C96.1304 15.1374 96.1278 15.0416 96.1039 14.9545C95.8107 13.8831 95.6624 13.1388 94.8874 12.2809C93.802 11.0792 92.4257 10.4886 90.8075 10.4078C88.3513 10.285 85.8104 10.5483 83.3411 10.4478C82.1203 10.3981 80.664 9.85678 79.682 9.14178C78.4351 8.23385 77.5093 4.49725 77.2456 2.9606C77.2127 2.98111 77.2258 3.03544 77.2254 3.06877C77.2014 4.99655 77.23 9.33387 77.2328 11.2556C77.2807 11.2075 77.2887 11.2876 77.2978 11.319C77.4505 11.8454 77.52 12.2137 77.7731 12.7192C78.9615 15.0931 81.4474 16.3003 84.0352 16.4619C85.4975 16.5532 87.0582 16.4411 88.5295 16.4218C89.4823 16.4094 90.541 16.3525 91.4818 16.4021C93.3002 16.4981 95.1851 17.6241 95.8907 19.328C95.9236 19.4075 96.0262 19.6857 96.0258 19.7556C96.0468 19.7618 96.0423 19.7793 96.0456 19.795C96.048 19.8071 96.0426 19.8235 96.0456 19.8344C96.1075 20.0653 96.1973 20.3512 96.2124 20.5834L96.2113 20.1253L96.1842 15.4267C96.1842 15.3778 96.1635 15.2936 96.1644 15.2196Z" fill="#CACACA"/>
<path d="M96.0937 19.9366L96.0735 19.8537C96.0807 19.8809 96.0874 19.9085 96.0937 19.9366Z" fill="#707070"/>
<path d="M80.522 20.836C83.7854 22.8768 87.3788 22.1363 91.0146 22.2786C92.4782 22.3359 93.7478 22.6956 94.8946 23.621C95.396 24.0256 95.7676 24.5554 96.0341 25.139C96.0392 25.1439 96.0436 25.147 96.0474 25.1487C96.0831 25.1693 96.1474 25.1742 96.1506 25.1505C96.1489 25.2278 96.1472 25.3051 96.1452 25.3823C96.1282 26.0377 96.1928 26.8639 95.9122 27.4536C95.2358 28.8753 94.0926 28.808 92.698 28.828C89.9789 28.8668 87.2567 28.7963 84.5373 28.8278C81.6359 28.7013 79.4044 27.2334 78.1018 24.6859C77.1512 22.827 77.2544 21.1904 77.2614 19.1741C77.2646 18.2333 77.2042 17.2016 77.2598 16.2736C77.2627 16.2259 77.2688 16.1645 77.3001 16.1264C77.5733 17.9973 78.9343 19.8431 80.522 20.836Z" fill="#707070"/>
<path d="M96.1666 24.0473C96.1759 23.0155 96.1754 21.9798 96.2113 20.9606C96.2057 21.9781 96.1783 23.0418 96.1666 24.0473Z" fill="#9D9D9D"/>
<path d="M96.1636 24.3467C96.1614 24.6079 96.1506 25.1505 96.1506 25.1505C96.1565 24.8808 96.1606 24.6103 96.1636 24.3395L96.1636 24.3467Z" fill="#9D9D9D"/>
<path d="M96.114 20.4937C96.1182 21.7685 96.083 23.0513 96.0726 24.3198C96.0704 24.5809 96.105 24.8568 96.0733 25.1096C96.0704 25.1322 96.0656 25.1569 96.0474 25.1487C96.0423 25.1458 96.0378 25.1425 96.0341 25.139C95.7676 24.5554 95.396 24.0256 94.8946 23.621C93.7478 22.6956 92.4782 22.3359 91.0146 22.2786C87.3788 22.1363 83.7854 22.8768 80.522 20.836C78.9344 19.8431 77.5367 18.1013 77.2636 16.2303C77.225 15.9657 77.2478 15.5383 77.2399 15.2692C77.2012 13.94 77.2625 12.6017 77.2605 11.2748C77.3085 11.2267 77.3165 11.3069 77.3255 11.3382C77.4783 11.8646 77.5478 12.2329 77.8009 12.7384C78.9892 15.1123 81.4752 16.3195 84.063 16.4811C85.5253 16.5724 87.086 16.4604 88.5573 16.4411C89.51 16.4286 90.5688 16.3717 91.5096 16.4214C93.328 16.5173 95.2129 17.6433 95.9185 19.3472C95.9514 19.4267 96.054 19.7049 96.0536 19.7748C96.0536 19.7848 95.9956 19.8222 96.0733 19.8142C96.0758 19.8263 96.0705 19.8427 96.0735 19.8537L96.114 20.4937Z" fill="#9D9D9D"/>
<path d="M96.1725 20.9385C96.1648 20.9283 96.175 20.7263 96.1725 20.682C96.1706 20.6493 96.1746 20.616 96.1725 20.5834C96.1592 20.3785 96.1404 20.1468 96.0937 19.9366L96.2121 20.4226C96.2127 20.5927 96.213 20.765 96.2121 20.9384C96.201 20.9366 96.1749 20.9418 96.1725 20.9385Z" fill="#9D9D9D"/>
<path d="M96.0474 25.1487C96.0656 25.1569 96.0704 25.1322 96.0733 25.1096C96.105 24.8568 96.0704 24.5809 96.0726 24.3198C96.083 23.0513 96.1182 21.7685 96.114 20.4937L96.0735 19.8537L96.0937 19.9366C96.1404 20.1468 96.1592 20.3785 96.1725 20.5834C96.1746 20.616 96.1706 20.6493 96.1725 20.682C96.175 20.7263 96.1648 20.9283 96.1725 20.9385C96.1749 20.9418 96.201 20.9366 96.2121 20.9384C96.2118 20.9458 96.2116 20.9532 96.2113 20.9606C96.1754 21.9798 96.1759 23.0155 96.1666 24.0473C96.1654 24.1452 96.1644 24.2427 96.1636 24.3395C96.1606 24.6103 96.1565 24.8808 96.1506 25.1505C96.1474 25.1742 96.0831 25.1693 96.0474 25.1487Z" fill="#9D9D9D"/>
<path d="M96.1842 14.8254C96.1835 14.9504 96.1858 15.3069 96.1842 15.4267C96.1501 15.3444 96.1419 15.1048 96.118 15.0176C95.8248 13.9463 95.6903 13.158 94.9153 12.3C93.8299 11.0984 92.4536 10.5078 90.8354 10.4269C88.3792 10.3042 85.8383 10.5675 83.369 10.467C82.1482 10.4173 80.6919 9.87597 79.7099 9.16097C78.8316 8.52145 78.1032 7.66618 77.6581 6.67423C77.411 6.12356 77.2441 3.82474 77.2276 3.21969C77.2203 2.95162 77.2248 2.38818 77.2356 2.12016C77.244 1.91111 77.2446 1.66519 77.3363 1.47191C77.3916 1.35536 77.5938 1.14715 77.696 1.06102C78.6177 0.283891 79.6212 1.76167 80.211 2.32374C81.1488 3.21752 82.7559 6.33103 84.0819 6.40439C85.876 6.50364 87.7869 6.22271 89.5585 6.59071C92.1457 7.12817 93.9621 8.38138 95.1927 10.7222C95.7405 11.7643 96.1912 13.6528 96.1842 14.8254Z" fill="white"/>
<path d="M96.0733 19.8142C96.0701 19.7985 96.0746 19.781 96.0536 19.7748C96.0536 19.7848 95.9956 19.8222 96.0733 19.8142Z" fill="#75312A"/>
<path d="M8.76 28.76C4.88 28.76 1.4 27.8 0 26.6V21.76C0 21.4 0.28 21.2 0.92 21.2H2.72C2.8 23.68 3.44 24.56 3.88 24.8C4.88 25.36 6.48 25.92 8.64 25.92C11.6 25.92 14.44 24.68 14.44 21.84C14.44 19.08 13.56 17.64 8.24 16C3.72 14.6 0.0400001 12.72 0.0400001 7.92C0.0400001 3.6 4.08 0.880001 8.6 0.880001C12.52 0.880001 15.12 1.76 16.52 2.96V7.28C16.52 7.64 16.24 7.84 15.6 7.84H13.8C13.8 5.8 13.36 4.76 12.92 4.52C11.88 4 10.52 3.64 8.72 3.64C6.2 3.64 3.52 4.88 3.52 7.36C3.52 10.52 5.28 11.84 9.28 13.04C15.24 14.84 17.92 16.96 17.92 21.44C17.92 26.36 13.4 28.76 8.76 28.76Z" fill="white"/>
<path d="M25.2556 4.64C23.8556 4.64 22.9356 3.64 22.9356 2.32C22.9356 1 23.8556 0 25.2556 0C26.6956 0 27.6156 1 27.6156 2.32C27.6156 3.64 26.6956 4.64 25.2556 4.64ZM21.4156 28.04C20.9756 27.44 20.8956 26.68 21.0956 26C23.3356 26 23.8556 26 23.8556 25.08V12.6C23.8556 11.84 23.6956 11.6 23.2956 11.6H21.0956C20.9756 11.16 20.8156 10.64 20.8156 10.32C20.8156 10.04 20.9756 9.88 21.3756 9.72C22.6156 9.24 24.8956 8.76 25.8556 8.76C26.8956 8.76 27.1756 9.32 27.1756 10V25.04C27.1756 25.96 27.4956 26 29.2956 26C29.6156 26 29.8556 26.16 29.8556 26.36C29.8556 26.92 29.7356 27.48 29.5356 28.04H21.4156Z" fill="white"/>
<path d="M33.1344 28.04C32.7344 27.56 32.6544 26.76 32.8144 26C35.0544 26 35.5744 26 35.5744 25.08V12C35.5744 11.24 35.4144 11 35.0144 11H32.8144C32.6944 10.56 32.5344 10.04 32.5344 9.76C32.5344 9.44 32.6944 9.28 33.0944 9.12C34.3344 8.64 36.6144 8.16 37.5744 8.16C38.6144 8.16 38.8944 8.72 38.8944 9.4V11.2C40.2544 9.56 42.3744 8.16 44.9344 8.16C48.8544 8.16 51.3344 10.88 51.3344 15.12V25.04C51.3344 25.92 51.6944 26 53.4944 26C53.8144 26 54.0544 26.16 54.0544 26.36C54.0544 26.92 53.9344 27.52 53.7344 28.04H45.6944C45.2944 27.56 45.2144 26.76 45.3744 26C47.5744 26 48.0144 26 48.0144 25.08V16.44C48.0144 12.68 46.9744 11.12 44.1344 11.12C42.4544 11.12 40.2944 12.48 38.8944 14.32V25.04C38.8944 25.92 39.1744 26 40.8944 26C41.2144 26 41.4544 26.16 41.4544 26.36C41.4544 26.92 41.3344 27.52 41.1344 28.04H33.1344Z" fill="white"/>
<path d="M62.5616 28.52C58.1216 28.52 56.6016 26 56.6016 23.28C56.6016 19.48 59.4016 16.96 64.3616 16.96H68.6816V15.92C68.6816 12.16 67.5216 10.84 64.4816 10.84C63.0416 10.84 61.9616 11.12 61.1216 11.72C60.6816 12.04 60.4016 13.64 60.3616 14.52H58.8816C58.2416 14.52 57.8416 14.36 57.8416 13.96V10.64C59.3216 9.36 61.5216 8.16 64.8016 8.16C69.1616 8.16 72.0016 10.68 72.0016 15.12V25C72.0016 25.28 72.0416 25.72 72.1616 25.96H74.6016C74.7616 26.32 74.8416 26.76 74.8416 27.48C74.0416 28 72.3216 28.48 71.0016 28.48C69.9216 28.48 69.1616 27.28 68.8016 26.36C67.2816 27.6 64.9616 28.52 62.5616 28.52ZM63.0816 25.88C65.1216 25.88 67.2416 25.08 68.6816 23.52V19.32H64.6416C61.8816 19.32 59.9216 20.56 59.9216 22.92C59.9216 25 61.0816 25.88 63.0816 25.88Z" fill="white"/>
<path d="M99.815 28.04C99.375 27.48 99.255 26.76 99.455 26C101.695 26 102.215 26 102.215 25.04V12C102.215 11.24 102.055 11 101.655 11H99.455C99.335 10.56 99.175 10.04 99.175 9.76C99.175 9.44 99.335 9.28 99.735 9.12C100.975 8.64 103.215 8.16 104.095 8.16C105.135 8.16 105.415 8.72 105.415 9.4V11.68C106.575 9.48 108.295 8.16 110.495 8.16C111.895 8.16 113.135 8.64 113.935 9.32V13.56C113.935 13.96 113.655 14.12 113.055 14.12H111.495C111.455 13 111.415 11.6 111.135 11.4C110.695 11.08 110.415 10.96 109.615 10.96C108.655 10.96 106.375 12.2 105.535 15.76V25.04C105.535 25.96 105.815 26 108.255 26C108.535 26 108.815 26.12 108.815 26.36C108.815 26.92 108.695 27.52 108.495 28.04H99.815Z" fill="white"/>
<path d="M125.888 28.52C120.408 28.52 116.328 24.88 116.328 18.32C116.328 11.76 120.408 8.16 125.888 8.16C131.368 8.16 135.448 11.76 135.448 18.32C135.448 24.88 131.368 28.52 125.888 28.52ZM125.888 25.8C129.528 25.8 132.088 22.92 132.088 18.32C132.088 13.64 129.528 10.88 125.888 10.88C122.248 10.88 119.688 13.64 119.688 18.32C119.688 22.92 122.248 25.8 125.888 25.8Z" fill="white"/>
</svg>
