<svg width="474" height="101" viewBox="0 0 474 101" fill="none" xmlns="http://www.w3.org/2000/svg">
<path d="M336.694 73.3279C336.699 73.1876 336.72 72.4655 336.694 72.4296C336.685 72.4182 336.594 72.4361 336.555 72.4301C336.564 72.5851 336.528 73.2925 336.555 73.3285C336.564 73.3399 336.655 73.3219 336.694 73.3279Z" fill="#5C945C"/>
<path d="M336.527 53.3004C336.408 53.0123 336.399 52.677 336.315 52.3718C335.289 48.6199 334.77 46.0133 332.058 43.0086C328.26 38.8004 323.443 36.732 317.78 36.4488C309.185 36.0191 300.293 36.9411 291.652 36.5892C287.38 36.4152 282.283 34.5193 278.847 32.0153C274.483 28.8356 271.243 15.7497 270.32 10.3683C270.206 10.4401 270.251 10.6304 270.25 10.7471C270.166 17.4983 270.266 32.688 270.276 39.418C270.444 39.2496 270.471 39.5302 270.503 39.64C271.038 41.4836 271.281 42.7734 272.166 44.5436C276.325 52.8573 285.025 57.085 294.081 57.6508C299.198 57.9706 304.66 57.5782 309.808 57.5106C313.143 57.467 316.848 57.2677 320.14 57.4416C326.504 57.7776 333.1 61.7209 335.569 67.6883C335.684 67.9666 336.043 68.941 336.042 69.1856C336.115 69.2074 336.1 69.2687 336.111 69.3238C336.12 69.3661 336.101 69.4234 336.111 69.4619C336.328 70.2703 336.642 71.2715 336.695 72.0847L336.691 70.4805L336.596 54.0256C336.596 53.8543 336.523 53.5594 336.527 53.3004Z" fill="#CACACA"/>
<path d="M336.279 69.8195L336.209 69.5293C336.234 69.6244 336.257 69.7213 336.279 69.8195Z" fill="#707070"/>
<path d="M281.786 72.9693C293.207 80.1165 305.782 77.523 318.505 78.0215C323.627 78.2222 328.07 79.4818 332.083 82.7229C333.838 84.1398 335.138 85.9951 336.071 88.0387C336.089 88.056 336.104 88.0669 336.117 88.0729C336.242 88.1451 336.467 88.1622 336.479 88.0792C336.473 88.3499 336.467 88.6205 336.46 88.8909C336.4 91.1863 336.626 94.0796 335.644 96.1447C333.277 101.124 329.277 100.888 324.396 100.958C314.881 101.094 305.355 100.847 295.838 100.957C285.684 100.514 277.875 95.3736 273.317 86.4521C269.99 79.9419 270.351 74.2106 270.376 67.1494C270.387 63.8544 270.176 60.2414 270.37 56.9915C270.38 56.8245 270.402 56.6094 270.511 56.4759C271.467 63.0281 276.23 69.4923 281.786 72.9693Z" fill="#707070"/>
<path d="M336.534 84.2156C336.567 80.6022 336.565 76.9752 336.691 73.4058C336.671 76.9693 336.575 80.6944 336.534 84.2156Z" fill="#9D9D9D"/>
<path d="M336.524 85.2644C336.516 86.1788 336.479 88.0792 336.479 88.0792C336.499 87.1347 336.513 86.1874 336.524 85.239L336.524 85.2644Z" fill="#9D9D9D"/>
<path d="M336.35 71.7707C336.365 76.2353 336.242 80.7277 336.205 85.1701C336.198 86.0845 336.319 87.0506 336.208 87.936C336.198 88.0151 336.181 88.1016 336.117 88.0729C336.1 88.0626 336.084 88.0512 336.071 88.0387C335.138 85.9951 333.838 84.1398 332.083 82.7229C328.07 79.4818 323.627 78.2222 318.505 78.0215C305.782 77.523 293.207 80.1165 281.786 72.9693C276.23 69.4922 271.339 63.3922 270.384 56.8401C270.248 55.9134 270.328 54.4165 270.301 53.4741C270.165 48.8192 270.38 44.1323 270.373 39.4854C270.541 39.317 270.569 39.5976 270.6 39.7074C271.135 41.551 271.378 42.8408 272.264 44.611C276.422 52.9247 285.122 57.1524 294.178 57.7182C299.295 58.038 304.757 57.6455 309.906 57.578C313.24 57.5343 316.945 57.3351 320.237 57.509C326.601 57.845 333.197 61.7883 335.666 67.7557C335.781 68.034 336.14 69.0084 336.139 69.253C336.139 69.2879 335.936 69.4189 336.208 69.3911C336.217 69.4334 336.198 69.4908 336.209 69.5293L336.35 71.7707Z" fill="#9D9D9D"/>
<path d="M336.555 73.3285C336.528 73.2925 336.564 72.5851 336.555 72.4301C336.549 72.3156 336.563 72.199 336.555 72.0847C336.509 71.3671 336.443 70.5559 336.279 69.8195L336.694 71.5217C336.696 72.1175 336.697 72.7207 336.694 73.3279C336.655 73.3219 336.564 73.3399 336.555 73.3285Z" fill="#9D9D9D"/>
<path d="M336.117 88.0729C336.181 88.1016 336.198 88.0151 336.208 87.936C336.319 87.0506 336.198 86.0845 336.205 85.1701C336.242 80.7277 336.365 76.2353 336.35 71.7707L336.209 69.5293L336.279 69.8195C336.443 70.5559 336.509 71.3671 336.555 72.0847C336.563 72.199 336.549 72.3156 336.555 72.4301C336.564 72.5851 336.528 73.2925 336.555 73.3285C336.564 73.3399 336.655 73.3219 336.694 73.3279C336.693 73.3538 336.692 73.3797 336.691 73.4058C336.565 76.9752 336.567 80.6022 336.534 84.2156C336.53 84.5587 336.527 84.9 336.524 85.239C336.513 86.1874 336.499 87.1347 336.479 88.0792C336.467 88.1622 336.242 88.1451 336.117 88.0729Z" fill="#9D9D9D"/>
<path d="M336.596 51.9199C336.594 52.3576 336.602 53.606 336.596 54.0256C336.477 53.7375 336.448 52.8982 336.365 52.593C335.338 48.8411 334.868 46.0805 332.156 43.0758C328.357 38.8676 323.541 36.7992 317.878 36.516C309.283 36.0863 300.391 37.0083 291.749 36.6564C287.477 36.4824 282.381 34.5865 278.944 32.0825C275.871 29.8428 273.322 26.8476 271.764 23.3737C270.899 21.4452 270.315 13.3946 270.258 11.2756C270.232 10.3368 270.248 8.3636 270.286 7.42499C270.315 6.69288 270.317 5.83162 270.638 5.15477C270.831 4.74659 271.539 4.01742 271.897 3.71577C275.122 0.99421 278.634 6.16952 280.698 8.13792C283.98 11.268 289.604 22.1718 294.244 22.4287C300.523 22.7763 307.21 21.7924 313.41 23.0812C322.463 24.9635 328.82 29.3523 333.126 37.55C335.043 41.1996 336.621 47.8132 336.596 51.9199Z" fill="white"/>
<path d="M336.208 69.3911C336.197 69.3361 336.213 69.2748 336.139 69.253C336.139 69.2879 335.936 69.4189 336.208 69.3911Z" fill="#75312A"/>
<path d="M30.6556 100.72C17.0775 100.72 4.89929 97.358 0 93.1555V76.2054C0 74.9446 0.979859 74.2442 3.21954 74.2442H9.51863C9.79859 82.9294 12.0383 86.0112 13.578 86.8517C17.0775 88.8129 22.6767 90.774 30.2356 90.774C40.5941 90.774 50.5327 86.4315 50.5327 76.4855C50.5327 66.8198 47.4532 61.7768 28.8358 56.0334C13.0181 51.1304 0.13998 44.5465 0.13998 27.7365C0.13998 12.6075 14.2779 3.08184 30.0957 3.08184C43.8137 3.08184 52.9124 6.16367 57.8117 10.3662V25.4952C57.8117 26.7559 56.8318 27.4563 54.5921 27.4563H48.293C48.293 20.3121 46.7533 16.6699 45.2135 15.8294C41.574 14.0083 36.8147 12.7476 30.5156 12.7476C21.6969 12.7476 12.3182 17.0902 12.3182 25.7753C12.3182 36.8419 18.4773 41.4647 32.4753 45.6672C53.3323 51.9709 62.7109 59.3954 62.7109 75.0847C62.7109 92.315 46.8932 100.72 30.6556 100.72Z" fill="black"/>
<path d="M88.3819 16.2497C83.4826 16.2497 80.2631 12.7476 80.2631 8.12484C80.2631 3.50209 83.4826 0 88.3819 0C93.4212 0 96.6407 3.50209 96.6407 8.12484C96.6407 12.7476 93.4212 16.2497 88.3819 16.2497ZM74.9439 98.1985C73.4041 96.0972 73.1241 93.4356 73.824 91.0542C81.6629 91.0542 83.4826 91.0542 83.4826 87.8323V44.1263C83.4826 41.4647 82.9227 40.6242 81.5229 40.6242H73.824C73.4041 39.0833 72.8442 37.2622 72.8442 36.1415C72.8442 35.1609 73.4041 34.6006 74.8039 34.0403C79.1433 32.3593 87.1221 30.6783 90.4816 30.6783C94.1211 30.6783 95.101 32.6394 95.101 35.0209V87.6922C95.101 90.9141 96.2208 91.0542 102.52 91.0542C103.64 91.0542 104.48 91.6145 104.48 92.315C104.48 94.2761 104.06 96.2373 103.36 98.1985H74.9439Z" fill="black"/>
<path d="M115.954 98.1985C114.554 96.5175 114.274 93.7158 114.834 91.0542C122.673 91.0542 124.492 91.0542 124.492 87.8323V42.025C124.492 39.3634 123.932 38.5229 122.533 38.5229H114.834C114.414 36.982 113.854 35.1609 113.854 34.1803C113.854 33.0597 114.414 32.4993 115.814 31.939C120.153 30.258 128.132 28.577 131.491 28.577C135.131 28.577 136.111 30.5382 136.111 32.9196V39.2234C140.87 33.4799 148.289 28.577 157.248 28.577C170.966 28.577 179.644 38.1027 179.644 52.9515V87.6922C179.644 90.774 180.904 91.0542 187.203 91.0542C188.323 91.0542 189.163 91.6145 189.163 92.315C189.163 94.2761 188.743 96.3774 188.043 98.1985H159.907C158.507 96.5175 158.227 93.7158 158.787 91.0542C166.486 91.0542 168.026 91.0542 168.026 87.8323V57.5743C168.026 44.4064 164.387 38.9432 154.448 38.9432C148.569 38.9432 141.01 43.706 136.111 50.1498V87.6922C136.111 90.774 137.091 91.0542 143.11 91.0542C144.229 91.0542 145.069 91.6145 145.069 92.315C145.069 94.2761 144.649 96.3774 143.95 98.1985H115.954Z" fill="black"/>
<path d="M218.934 99.8795C203.396 99.8795 198.077 91.0542 198.077 81.5285C198.077 68.2206 207.875 59.3954 225.233 59.3954H240.351V55.7532C240.351 42.5854 236.291 37.9626 225.653 37.9626C220.614 37.9626 216.834 38.9432 213.895 41.0444C212.355 42.1651 211.375 47.7684 211.235 50.8503H206.056C203.816 50.8503 202.416 50.2899 202.416 48.8891V37.2622C207.596 32.7795 215.294 28.577 226.773 28.577C242.031 28.577 251.969 37.4023 251.969 52.9515V87.5521C251.969 88.5327 252.109 90.0736 252.529 90.9141H261.068C261.628 92.1749 261.908 93.7158 261.908 96.2373C259.108 98.0584 253.089 99.7394 248.47 99.7394C244.69 99.7394 242.031 95.5369 240.771 92.315C235.451 96.6575 227.333 99.8795 218.934 99.8795ZM220.754 90.6339C227.893 90.6339 235.311 87.8323 240.351 82.369V67.6603H226.213C216.554 67.6603 209.695 72.0029 209.695 80.2678C209.695 87.5521 213.755 90.6339 220.754 90.6339Z" fill="black"/>
<path d="M349.302 98.1985C347.762 96.2373 347.342 93.7158 348.042 91.0542C355.881 91.0542 357.701 91.0542 357.701 87.6922V42.025C357.701 39.3634 357.141 38.5229 355.741 38.5229H348.042C347.622 36.982 347.062 35.1609 347.062 34.1803C347.062 33.0597 347.622 32.4993 349.022 31.939C353.362 30.258 361.2 28.577 364.28 28.577C367.919 28.577 368.899 30.5382 368.899 32.9196V40.9043C372.959 33.1998 378.978 28.577 386.677 28.577C391.576 28.577 395.915 30.258 398.715 32.6394V47.4883C398.715 48.8891 397.735 49.4494 395.635 49.4494H390.176C390.036 45.5271 389.896 40.6242 388.916 39.9238C387.377 38.8031 386.397 38.3829 383.597 38.3829C380.238 38.3829 372.259 42.7254 369.319 55.1929V87.6922C369.319 90.9141 370.299 91.0542 378.838 91.0542C379.818 91.0542 380.798 91.4745 380.798 92.315C380.798 94.2761 380.378 96.3774 379.678 98.1985H349.302Z" fill="black"/>
<path d="M440.545 99.8795C421.368 99.8795 407.09 87.1319 407.09 64.1582C407.09 41.1845 421.368 28.577 440.545 28.577C459.722 28.577 474 41.1845 474 64.1582C474 87.1319 459.722 99.8795 440.545 99.8795ZM440.545 90.3538C453.283 90.3538 462.242 80.2678 462.242 64.1582C462.242 47.7684 453.283 38.1027 440.545 38.1027C427.807 38.1027 418.848 47.7684 418.848 64.1582C418.848 80.2678 427.807 90.3538 440.545 90.3538Z" fill="black"/>
</svg>
